G75*
%MOIN*%
%OFA0B0*%
%FSLAX25Y25*%
%IPPOS*%
%LPD*%
%AMOC8*
5,1,8,0,0,1.08239X$1,22.5*
%
%ADD10R,0.07874X0.04724*%
%ADD11R,0.05315X0.02362*%
%ADD12R,0.04331X0.03937*%
%ADD13R,0.13000X0.08800*%
%ADD14R,0.07874X0.19685*%
%ADD15R,0.06693X0.15748*%
%ADD16R,0.01969X0.03150*%
%ADD17R,0.03937X0.04331*%
D10*
X0047031Y0067476D03*
X0047031Y0089524D03*
X0047031Y0169476D03*
X0047031Y0191524D03*
X0047031Y0271476D03*
X0047031Y0293524D03*
X0047031Y0373476D03*
X0047031Y0395524D03*
X0047031Y0475476D03*
X0047031Y0497524D03*
X0047031Y0577476D03*
X0047031Y0599524D03*
X0047031Y0679476D03*
X0047031Y0701524D03*
X0047031Y0781476D03*
X0047031Y0803524D03*
X0047031Y0883476D03*
X0047031Y0905524D03*
X0047031Y0985476D03*
X0047031Y1007524D03*
X0135969Y1007524D03*
X0135969Y0985476D03*
X0162031Y0985476D03*
X0162031Y1007524D03*
X0162031Y0905524D03*
X0162031Y0883476D03*
X0135969Y0883476D03*
X0135969Y0905524D03*
X0135969Y0803524D03*
X0135969Y0781476D03*
X0162031Y0781476D03*
X0162031Y0803524D03*
X0162031Y0701524D03*
X0162031Y0679476D03*
X0135969Y0679476D03*
X0135969Y0701524D03*
X0135969Y0599524D03*
X0135969Y0577476D03*
X0162031Y0577476D03*
X0162031Y0599524D03*
X0162031Y0497524D03*
X0162031Y0475476D03*
X0135969Y0475476D03*
X0135969Y0497524D03*
X0135969Y0395524D03*
X0135969Y0373476D03*
X0162031Y0373476D03*
X0162031Y0395524D03*
X0162031Y0293524D03*
X0162031Y0271476D03*
X0135969Y0271476D03*
X0135969Y0293524D03*
X0135969Y0191524D03*
X0135969Y0169476D03*
X0162031Y0169476D03*
X0162031Y0191524D03*
X0162031Y0089524D03*
X0162031Y0067476D03*
X0135969Y0067476D03*
X0135969Y0089524D03*
X0250969Y0089524D03*
X0250969Y0067476D03*
X0277031Y0067476D03*
X0277031Y0089524D03*
X0277031Y0169476D03*
X0277031Y0191524D03*
X0250969Y0191524D03*
X0250969Y0169476D03*
X0250969Y0271476D03*
X0250969Y0293524D03*
X0277031Y0293524D03*
X0277031Y0271476D03*
X0277031Y0373476D03*
X0277031Y0395524D03*
X0250969Y0395524D03*
X0250969Y0373476D03*
X0250969Y0475476D03*
X0250969Y0497524D03*
X0277031Y0497524D03*
X0277031Y0475476D03*
X0277031Y0577476D03*
X0277031Y0599524D03*
X0250969Y0599524D03*
X0250969Y0577476D03*
X0250969Y0679476D03*
X0250969Y0701524D03*
X0277031Y0701524D03*
X0277031Y0679476D03*
X0277031Y0781476D03*
X0277031Y0803524D03*
X0250969Y0803524D03*
X0250969Y0781476D03*
X0250969Y0883476D03*
X0250969Y0905524D03*
X0277031Y0905524D03*
X0277031Y0883476D03*
X0277031Y0985476D03*
X0277031Y1007524D03*
X0250969Y1007524D03*
X0250969Y0985476D03*
X0365969Y0985476D03*
X0365969Y1007524D03*
X0392031Y1007524D03*
X0392031Y0985476D03*
X0392031Y0905524D03*
X0392031Y0883476D03*
X0365969Y0883476D03*
X0365969Y0905524D03*
X0365969Y0803524D03*
X0365969Y0781476D03*
X0392031Y0781476D03*
X0392031Y0803524D03*
X0392031Y0701524D03*
X0392031Y0679476D03*
X0365969Y0679476D03*
X0365969Y0701524D03*
X0365969Y0599524D03*
X0365969Y0577476D03*
X0392031Y0577476D03*
X0392031Y0599524D03*
X0392031Y0497524D03*
X0392031Y0475476D03*
X0365969Y0475476D03*
X0365969Y0497524D03*
X0365969Y0395524D03*
X0365969Y0373476D03*
X0392031Y0373476D03*
X0392031Y0395524D03*
X0392031Y0293524D03*
X0392031Y0271476D03*
X0365969Y0271476D03*
X0365969Y0293524D03*
X0365969Y0191524D03*
X0365969Y0169476D03*
X0392031Y0169476D03*
X0392031Y0191524D03*
X0392031Y0089524D03*
X0392031Y0067476D03*
X0365969Y0067476D03*
X0365969Y0089524D03*
X0480969Y0089524D03*
X0480969Y0067476D03*
X0507031Y0067476D03*
X0507031Y0089524D03*
X0507031Y0169476D03*
X0507031Y0191524D03*
X0480969Y0191524D03*
X0480969Y0169476D03*
X0480969Y0271476D03*
X0480969Y0293524D03*
X0507031Y0293524D03*
X0507031Y0271476D03*
X0507031Y0373476D03*
X0507031Y0395524D03*
X0480969Y0395524D03*
X0480969Y0373476D03*
X0480969Y0475476D03*
X0480969Y0497524D03*
X0507031Y0497524D03*
X0507031Y0475476D03*
X0507031Y0577476D03*
X0507031Y0599524D03*
X0480969Y0599524D03*
X0480969Y0577476D03*
X0480969Y0679476D03*
X0480969Y0701524D03*
X0507031Y0701524D03*
X0507031Y0679476D03*
X0507031Y0781476D03*
X0507031Y0803524D03*
X0480969Y0803524D03*
X0480969Y0781476D03*
X0480969Y0883476D03*
X0480969Y0905524D03*
X0507031Y0905524D03*
X0507031Y0883476D03*
X0507031Y0985476D03*
X0507031Y1007524D03*
X0480969Y1007524D03*
X0480969Y0985476D03*
X0595969Y0985476D03*
X0595969Y1007524D03*
X0622031Y1007524D03*
X0622031Y0985476D03*
X0622031Y0905524D03*
X0622031Y0883476D03*
X0595969Y0883476D03*
X0595969Y0905524D03*
X0595969Y0803524D03*
X0595969Y0781476D03*
X0622031Y0781476D03*
X0622031Y0803524D03*
X0622031Y0701524D03*
X0622031Y0679476D03*
X0595969Y0679476D03*
X0595969Y0701524D03*
X0595969Y0599524D03*
X0595969Y0577476D03*
X0622031Y0577476D03*
X0622031Y0599524D03*
X0622031Y0497524D03*
X0622031Y0475476D03*
X0595969Y0475476D03*
X0595969Y0497524D03*
X0595969Y0395524D03*
X0595969Y0373476D03*
X0622031Y0373476D03*
X0622031Y0395524D03*
X0622031Y0293524D03*
X0622031Y0271476D03*
X0595969Y0271476D03*
X0595969Y0293524D03*
X0595969Y0191524D03*
X0595969Y0169476D03*
X0622031Y0169476D03*
X0622031Y0191524D03*
X0622031Y0089524D03*
X0622031Y0067476D03*
X0595969Y0067476D03*
X0595969Y0089524D03*
X0710969Y0089524D03*
X0710969Y0067476D03*
X0737031Y0067476D03*
X0737031Y0089524D03*
X0737031Y0169476D03*
X0737031Y0191524D03*
X0710969Y0191524D03*
X0710969Y0169476D03*
X0710969Y0271476D03*
X0710969Y0293524D03*
X0737031Y0293524D03*
X0737031Y0271476D03*
X0737031Y0373476D03*
X0737031Y0395524D03*
X0710969Y0395524D03*
X0710969Y0373476D03*
X0710969Y0475476D03*
X0710969Y0497524D03*
X0737031Y0497524D03*
X0737031Y0475476D03*
X0737031Y0577476D03*
X0737031Y0599524D03*
X0710969Y0599524D03*
X0710969Y0577476D03*
X0710969Y0679476D03*
X0710969Y0701524D03*
X0737031Y0701524D03*
X0737031Y0679476D03*
X0737031Y0781476D03*
X0737031Y0803524D03*
X0710969Y0803524D03*
X0710969Y0781476D03*
X0710969Y0883476D03*
X0710969Y0905524D03*
X0737031Y0905524D03*
X0737031Y0883476D03*
X0737031Y0985476D03*
X0737031Y1007524D03*
X0710969Y1007524D03*
X0710969Y0985476D03*
X0825969Y0985476D03*
X0825969Y1007524D03*
X0825969Y0905524D03*
X0825969Y0883476D03*
X0825969Y0803524D03*
X0825969Y0781476D03*
X0825969Y0701524D03*
X0825969Y0679476D03*
X0825969Y0599524D03*
X0825969Y0577476D03*
X0825969Y0497524D03*
X0825969Y0475476D03*
X0825969Y0395524D03*
X0825969Y0373476D03*
X0825969Y0293524D03*
X0825969Y0271476D03*
X0825969Y0191524D03*
X0825969Y0169476D03*
X0825969Y0089524D03*
X0825969Y0067476D03*
D11*
X0811500Y0072594D03*
X0811500Y0076531D03*
X0811500Y0080469D03*
X0811500Y0084406D03*
X0751500Y0084406D03*
X0751500Y0080469D03*
X0751500Y0076531D03*
X0751500Y0072594D03*
X0696500Y0072594D03*
X0696500Y0076531D03*
X0696500Y0080469D03*
X0696500Y0084406D03*
X0636500Y0084406D03*
X0636500Y0080469D03*
X0636500Y0076531D03*
X0636500Y0072594D03*
X0581500Y0072594D03*
X0581500Y0076531D03*
X0581500Y0080469D03*
X0581500Y0084406D03*
X0521500Y0084406D03*
X0521500Y0080469D03*
X0521500Y0076531D03*
X0521500Y0072594D03*
X0466500Y0072594D03*
X0466500Y0076531D03*
X0466500Y0080469D03*
X0466500Y0084406D03*
X0406500Y0084406D03*
X0406500Y0080469D03*
X0406500Y0076531D03*
X0406500Y0072594D03*
X0351500Y0072594D03*
X0351500Y0076531D03*
X0351500Y0080469D03*
X0351500Y0084406D03*
X0291500Y0084406D03*
X0291500Y0080469D03*
X0291500Y0076531D03*
X0291500Y0072594D03*
X0236500Y0072594D03*
X0236500Y0076531D03*
X0236500Y0080469D03*
X0236500Y0084406D03*
X0176500Y0084406D03*
X0176500Y0080469D03*
X0176500Y0076531D03*
X0176500Y0072594D03*
X0121500Y0072594D03*
X0121500Y0076531D03*
X0121500Y0080469D03*
X0121500Y0084406D03*
X0061500Y0084406D03*
X0061500Y0080469D03*
X0061500Y0076531D03*
X0061500Y0072594D03*
X0061500Y0174594D03*
X0061500Y0178531D03*
X0061500Y0182469D03*
X0061500Y0186406D03*
X0121500Y0186406D03*
X0121500Y0182469D03*
X0121500Y0178531D03*
X0121500Y0174594D03*
X0176500Y0174594D03*
X0176500Y0178531D03*
X0176500Y0182469D03*
X0176500Y0186406D03*
X0236500Y0186406D03*
X0236500Y0182469D03*
X0236500Y0178531D03*
X0236500Y0174594D03*
X0291500Y0174594D03*
X0291500Y0178531D03*
X0291500Y0182469D03*
X0291500Y0186406D03*
X0351500Y0186406D03*
X0351500Y0182469D03*
X0351500Y0178531D03*
X0351500Y0174594D03*
X0406500Y0174594D03*
X0406500Y0178531D03*
X0406500Y0182469D03*
X0406500Y0186406D03*
X0466500Y0186406D03*
X0466500Y0182469D03*
X0466500Y0178531D03*
X0466500Y0174594D03*
X0521500Y0174594D03*
X0521500Y0178531D03*
X0521500Y0182469D03*
X0521500Y0186406D03*
X0581500Y0186406D03*
X0581500Y0182469D03*
X0581500Y0178531D03*
X0581500Y0174594D03*
X0636500Y0174594D03*
X0636500Y0178531D03*
X0636500Y0182469D03*
X0636500Y0186406D03*
X0696500Y0186406D03*
X0696500Y0182469D03*
X0696500Y0178531D03*
X0696500Y0174594D03*
X0751500Y0174594D03*
X0751500Y0178531D03*
X0751500Y0182469D03*
X0751500Y0186406D03*
X0811500Y0186406D03*
X0811500Y0182469D03*
X0811500Y0178531D03*
X0811500Y0174594D03*
X0811500Y0276594D03*
X0811500Y0280531D03*
X0811500Y0284469D03*
X0811500Y0288406D03*
X0751500Y0288406D03*
X0751500Y0284469D03*
X0751500Y0280531D03*
X0751500Y0276594D03*
X0696500Y0276594D03*
X0696500Y0280531D03*
X0696500Y0284469D03*
X0696500Y0288406D03*
X0636500Y0288406D03*
X0636500Y0284469D03*
X0636500Y0280531D03*
X0636500Y0276594D03*
X0581500Y0276594D03*
X0581500Y0280531D03*
X0581500Y0284469D03*
X0581500Y0288406D03*
X0521500Y0288406D03*
X0521500Y0284469D03*
X0521500Y0280531D03*
X0521500Y0276594D03*
X0466500Y0276594D03*
X0466500Y0280531D03*
X0466500Y0284469D03*
X0466500Y0288406D03*
X0406500Y0288406D03*
X0406500Y0284469D03*
X0406500Y0280531D03*
X0406500Y0276594D03*
X0351500Y0276594D03*
X0351500Y0280531D03*
X0351500Y0284469D03*
X0351500Y0288406D03*
X0291500Y0288406D03*
X0291500Y0284469D03*
X0291500Y0280531D03*
X0291500Y0276594D03*
X0236500Y0276594D03*
X0236500Y0280531D03*
X0236500Y0284469D03*
X0236500Y0288406D03*
X0176500Y0288406D03*
X0176500Y0284469D03*
X0176500Y0280531D03*
X0176500Y0276594D03*
X0121500Y0276594D03*
X0121500Y0280531D03*
X0121500Y0284469D03*
X0121500Y0288406D03*
X0061500Y0288406D03*
X0061500Y0284469D03*
X0061500Y0280531D03*
X0061500Y0276594D03*
X0061500Y0378594D03*
X0061500Y0382531D03*
X0061500Y0386469D03*
X0061500Y0390406D03*
X0121500Y0390406D03*
X0121500Y0386469D03*
X0121500Y0382531D03*
X0121500Y0378594D03*
X0176500Y0378594D03*
X0176500Y0382531D03*
X0176500Y0386469D03*
X0176500Y0390406D03*
X0236500Y0390406D03*
X0236500Y0386469D03*
X0236500Y0382531D03*
X0236500Y0378594D03*
X0291500Y0378594D03*
X0291500Y0382531D03*
X0291500Y0386469D03*
X0291500Y0390406D03*
X0351500Y0390406D03*
X0351500Y0386469D03*
X0351500Y0382531D03*
X0351500Y0378594D03*
X0406500Y0378594D03*
X0406500Y0382531D03*
X0406500Y0386469D03*
X0406500Y0390406D03*
X0466500Y0390406D03*
X0466500Y0386469D03*
X0466500Y0382531D03*
X0466500Y0378594D03*
X0521500Y0378594D03*
X0521500Y0382531D03*
X0521500Y0386469D03*
X0521500Y0390406D03*
X0581500Y0390406D03*
X0581500Y0386469D03*
X0581500Y0382531D03*
X0581500Y0378594D03*
X0636500Y0378594D03*
X0636500Y0382531D03*
X0636500Y0386469D03*
X0636500Y0390406D03*
X0696500Y0390406D03*
X0696500Y0386469D03*
X0696500Y0382531D03*
X0696500Y0378594D03*
X0751500Y0378594D03*
X0751500Y0382531D03*
X0751500Y0386469D03*
X0751500Y0390406D03*
X0811500Y0390406D03*
X0811500Y0386469D03*
X0811500Y0382531D03*
X0811500Y0378594D03*
X0811500Y0480594D03*
X0811500Y0484531D03*
X0811500Y0488469D03*
X0811500Y0492406D03*
X0751500Y0492406D03*
X0751500Y0488469D03*
X0751500Y0484531D03*
X0751500Y0480594D03*
X0696500Y0480594D03*
X0696500Y0484531D03*
X0696500Y0488469D03*
X0696500Y0492406D03*
X0636500Y0492406D03*
X0636500Y0488469D03*
X0636500Y0484531D03*
X0636500Y0480594D03*
X0581500Y0480594D03*
X0581500Y0484531D03*
X0581500Y0488469D03*
X0581500Y0492406D03*
X0521500Y0492406D03*
X0521500Y0488469D03*
X0521500Y0484531D03*
X0521500Y0480594D03*
X0466500Y0480594D03*
X0466500Y0484531D03*
X0466500Y0488469D03*
X0466500Y0492406D03*
X0406500Y0492406D03*
X0406500Y0488469D03*
X0406500Y0484531D03*
X0406500Y0480594D03*
X0351500Y0480594D03*
X0351500Y0484531D03*
X0351500Y0488469D03*
X0351500Y0492406D03*
X0291500Y0492406D03*
X0291500Y0488469D03*
X0291500Y0484531D03*
X0291500Y0480594D03*
X0236500Y0480594D03*
X0236500Y0484531D03*
X0236500Y0488469D03*
X0236500Y0492406D03*
X0176500Y0492406D03*
X0176500Y0488469D03*
X0176500Y0484531D03*
X0176500Y0480594D03*
X0121500Y0480594D03*
X0121500Y0484531D03*
X0121500Y0488469D03*
X0121500Y0492406D03*
X0061500Y0492406D03*
X0061500Y0488469D03*
X0061500Y0484531D03*
X0061500Y0480594D03*
X0061500Y0582594D03*
X0061500Y0586531D03*
X0061500Y0590469D03*
X0061500Y0594406D03*
X0121500Y0594406D03*
X0121500Y0590469D03*
X0121500Y0586531D03*
X0121500Y0582594D03*
X0176500Y0582594D03*
X0176500Y0586531D03*
X0176500Y0590469D03*
X0176500Y0594406D03*
X0236500Y0594406D03*
X0236500Y0590469D03*
X0236500Y0586531D03*
X0236500Y0582594D03*
X0291500Y0582594D03*
X0291500Y0586531D03*
X0291500Y0590469D03*
X0291500Y0594406D03*
X0351500Y0594406D03*
X0351500Y0590469D03*
X0351500Y0586531D03*
X0351500Y0582594D03*
X0406500Y0582594D03*
X0406500Y0586531D03*
X0406500Y0590469D03*
X0406500Y0594406D03*
X0466500Y0594406D03*
X0466500Y0590469D03*
X0466500Y0586531D03*
X0466500Y0582594D03*
X0521500Y0582594D03*
X0521500Y0586531D03*
X0521500Y0590469D03*
X0521500Y0594406D03*
X0581500Y0594406D03*
X0581500Y0590469D03*
X0581500Y0586531D03*
X0581500Y0582594D03*
X0636500Y0582594D03*
X0636500Y0586531D03*
X0636500Y0590469D03*
X0636500Y0594406D03*
X0696500Y0594406D03*
X0696500Y0590469D03*
X0696500Y0586531D03*
X0696500Y0582594D03*
X0751500Y0582594D03*
X0751500Y0586531D03*
X0751500Y0590469D03*
X0751500Y0594406D03*
X0811500Y0594406D03*
X0811500Y0590469D03*
X0811500Y0586531D03*
X0811500Y0582594D03*
X0811500Y0684594D03*
X0811500Y0688531D03*
X0811500Y0692469D03*
X0811500Y0696406D03*
X0751500Y0696406D03*
X0751500Y0692469D03*
X0751500Y0688531D03*
X0751500Y0684594D03*
X0696500Y0684594D03*
X0696500Y0688531D03*
X0696500Y0692469D03*
X0696500Y0696406D03*
X0636500Y0696406D03*
X0636500Y0692469D03*
X0636500Y0688531D03*
X0636500Y0684594D03*
X0581500Y0684594D03*
X0581500Y0688531D03*
X0581500Y0692469D03*
X0581500Y0696406D03*
X0521500Y0696406D03*
X0521500Y0692469D03*
X0521500Y0688531D03*
X0521500Y0684594D03*
X0466500Y0684594D03*
X0466500Y0688531D03*
X0466500Y0692469D03*
X0466500Y0696406D03*
X0406500Y0696406D03*
X0406500Y0692469D03*
X0406500Y0688531D03*
X0406500Y0684594D03*
X0351500Y0684594D03*
X0351500Y0688531D03*
X0351500Y0692469D03*
X0351500Y0696406D03*
X0291500Y0696406D03*
X0291500Y0692469D03*
X0291500Y0688531D03*
X0291500Y0684594D03*
X0236500Y0684594D03*
X0236500Y0688531D03*
X0236500Y0692469D03*
X0236500Y0696406D03*
X0176500Y0696406D03*
X0176500Y0692469D03*
X0176500Y0688531D03*
X0176500Y0684594D03*
X0121500Y0684594D03*
X0121500Y0688531D03*
X0121500Y0692469D03*
X0121500Y0696406D03*
X0061500Y0696406D03*
X0061500Y0692469D03*
X0061500Y0688531D03*
X0061500Y0684594D03*
X0061500Y0786594D03*
X0061500Y0790531D03*
X0061500Y0794469D03*
X0061500Y0798406D03*
X0121500Y0798406D03*
X0121500Y0794469D03*
X0121500Y0790531D03*
X0121500Y0786594D03*
X0176500Y0786594D03*
X0176500Y0790531D03*
X0176500Y0794469D03*
X0176500Y0798406D03*
X0236500Y0798406D03*
X0236500Y0794469D03*
X0236500Y0790531D03*
X0236500Y0786594D03*
X0291500Y0786594D03*
X0291500Y0790531D03*
X0291500Y0794469D03*
X0291500Y0798406D03*
X0351500Y0798406D03*
X0351500Y0794469D03*
X0351500Y0790531D03*
X0351500Y0786594D03*
X0406500Y0786594D03*
X0406500Y0790531D03*
X0406500Y0794469D03*
X0406500Y0798406D03*
X0466500Y0798406D03*
X0466500Y0794469D03*
X0466500Y0790531D03*
X0466500Y0786594D03*
X0521500Y0786594D03*
X0521500Y0790531D03*
X0521500Y0794469D03*
X0521500Y0798406D03*
X0581500Y0798406D03*
X0581500Y0794469D03*
X0581500Y0790531D03*
X0581500Y0786594D03*
X0636500Y0786594D03*
X0636500Y0790531D03*
X0636500Y0794469D03*
X0636500Y0798406D03*
X0696500Y0798406D03*
X0696500Y0794469D03*
X0696500Y0790531D03*
X0696500Y0786594D03*
X0751500Y0786594D03*
X0751500Y0790531D03*
X0751500Y0794469D03*
X0751500Y0798406D03*
X0811500Y0798406D03*
X0811500Y0794469D03*
X0811500Y0790531D03*
X0811500Y0786594D03*
X0811500Y0888594D03*
X0811500Y0892531D03*
X0811500Y0896469D03*
X0811500Y0900406D03*
X0751500Y0900406D03*
X0751500Y0896469D03*
X0751500Y0892531D03*
X0751500Y0888594D03*
X0696500Y0888594D03*
X0696500Y0892531D03*
X0696500Y0896469D03*
X0696500Y0900406D03*
X0636500Y0900406D03*
X0636500Y0896469D03*
X0636500Y0892531D03*
X0636500Y0888594D03*
X0581500Y0888594D03*
X0581500Y0892531D03*
X0581500Y0896469D03*
X0581500Y0900406D03*
X0521500Y0900406D03*
X0521500Y0896469D03*
X0521500Y0892531D03*
X0521500Y0888594D03*
X0466500Y0888594D03*
X0466500Y0892531D03*
X0466500Y0896469D03*
X0466500Y0900406D03*
X0406500Y0900406D03*
X0406500Y0896469D03*
X0406500Y0892531D03*
X0406500Y0888594D03*
X0351500Y0888594D03*
X0351500Y0892531D03*
X0351500Y0896469D03*
X0351500Y0900406D03*
X0291500Y0900406D03*
X0291500Y0896469D03*
X0291500Y0892531D03*
X0291500Y0888594D03*
X0236500Y0888594D03*
X0236500Y0892531D03*
X0236500Y0896469D03*
X0236500Y0900406D03*
X0176500Y0900406D03*
X0176500Y0896469D03*
X0176500Y0892531D03*
X0176500Y0888594D03*
X0121500Y0888594D03*
X0121500Y0892531D03*
X0121500Y0896469D03*
X0121500Y0900406D03*
X0061500Y0900406D03*
X0061500Y0896469D03*
X0061500Y0892531D03*
X0061500Y0888594D03*
X0061500Y0990594D03*
X0061500Y0994531D03*
X0061500Y0998469D03*
X0061500Y1002406D03*
X0121500Y1002406D03*
X0121500Y0998469D03*
X0121500Y0994531D03*
X0121500Y0990594D03*
X0176500Y0990594D03*
X0176500Y0994531D03*
X0176500Y0998469D03*
X0176500Y1002406D03*
X0236500Y1002406D03*
X0236500Y0998469D03*
X0236500Y0994531D03*
X0236500Y0990594D03*
X0291500Y0990594D03*
X0291500Y0994531D03*
X0291500Y0998469D03*
X0291500Y1002406D03*
X0351500Y1002406D03*
X0351500Y0998469D03*
X0351500Y0994531D03*
X0351500Y0990594D03*
X0406500Y0990594D03*
X0406500Y0994531D03*
X0406500Y0998469D03*
X0406500Y1002406D03*
X0466500Y1002406D03*
X0466500Y0998469D03*
X0466500Y0994531D03*
X0466500Y0990594D03*
X0521500Y0990594D03*
X0521500Y0994531D03*
X0521500Y0998469D03*
X0521500Y1002406D03*
X0581500Y1002406D03*
X0581500Y0998469D03*
X0581500Y0994531D03*
X0581500Y0990594D03*
X0636500Y0990594D03*
X0636500Y0994531D03*
X0636500Y0998469D03*
X0636500Y1002406D03*
X0696500Y1002406D03*
X0696500Y0998469D03*
X0696500Y0994531D03*
X0696500Y0990594D03*
X0751500Y0990594D03*
X0751500Y0994531D03*
X0751500Y0998469D03*
X0751500Y1002406D03*
X0811500Y1002406D03*
X0811500Y0998469D03*
X0811500Y0994531D03*
X0811500Y0990594D03*
D12*
X0799846Y0981000D03*
X0793154Y0981000D03*
X0793154Y0971500D03*
X0799846Y0971500D03*
X0769846Y0971500D03*
X0763154Y0971500D03*
X0763154Y0981000D03*
X0769846Y0981000D03*
X0684846Y0981000D03*
X0678154Y0981000D03*
X0678154Y0971500D03*
X0684846Y0971500D03*
X0654846Y0971500D03*
X0648154Y0971500D03*
X0648154Y0981000D03*
X0654846Y0981000D03*
X0569846Y0981000D03*
X0563154Y0981000D03*
X0563154Y0971500D03*
X0569846Y0971500D03*
X0539846Y0971500D03*
X0533154Y0971500D03*
X0533154Y0981000D03*
X0539846Y0981000D03*
X0454846Y0981000D03*
X0448154Y0981000D03*
X0448154Y0971500D03*
X0454846Y0971500D03*
X0424846Y0971500D03*
X0418154Y0971500D03*
X0418154Y0981000D03*
X0424846Y0981000D03*
X0339846Y0981000D03*
X0333154Y0981000D03*
X0333154Y0971500D03*
X0339846Y0971500D03*
X0309846Y0971500D03*
X0303154Y0971500D03*
X0303154Y0981000D03*
X0309846Y0981000D03*
X0224846Y0981000D03*
X0218154Y0981000D03*
X0218154Y0971500D03*
X0224846Y0971500D03*
X0194846Y0971500D03*
X0188154Y0971500D03*
X0188154Y0981000D03*
X0194846Y0981000D03*
X0109846Y0981000D03*
X0103154Y0981000D03*
X0103154Y0971500D03*
X0109846Y0971500D03*
X0079846Y0971500D03*
X0073154Y0971500D03*
X0073154Y0981000D03*
X0079846Y0981000D03*
X0079846Y0879000D03*
X0073154Y0879000D03*
X0073154Y0869500D03*
X0079846Y0869500D03*
X0103154Y0869500D03*
X0109846Y0869500D03*
X0109846Y0879000D03*
X0103154Y0879000D03*
X0103154Y0777000D03*
X0109846Y0777000D03*
X0109846Y0767500D03*
X0103154Y0767500D03*
X0079846Y0767500D03*
X0073154Y0767500D03*
X0073154Y0777000D03*
X0079846Y0777000D03*
X0079846Y0675000D03*
X0073154Y0675000D03*
X0073154Y0665500D03*
X0079846Y0665500D03*
X0103154Y0665500D03*
X0109846Y0665500D03*
X0109846Y0675000D03*
X0103154Y0675000D03*
X0103154Y0573000D03*
X0109846Y0573000D03*
X0109846Y0563500D03*
X0103154Y0563500D03*
X0079846Y0563500D03*
X0073154Y0563500D03*
X0073154Y0573000D03*
X0079846Y0573000D03*
X0079846Y0471000D03*
X0073154Y0471000D03*
X0073154Y0461500D03*
X0079846Y0461500D03*
X0103154Y0461500D03*
X0109846Y0461500D03*
X0109846Y0471000D03*
X0103154Y0471000D03*
X0103154Y0369000D03*
X0109846Y0369000D03*
X0109846Y0359500D03*
X0103154Y0359500D03*
X0079846Y0359500D03*
X0073154Y0359500D03*
X0073154Y0369000D03*
X0079846Y0369000D03*
X0079846Y0267000D03*
X0073154Y0267000D03*
X0073154Y0257500D03*
X0079846Y0257500D03*
X0103154Y0257500D03*
X0109846Y0257500D03*
X0109846Y0267000D03*
X0103154Y0267000D03*
X0103154Y0165000D03*
X0109846Y0165000D03*
X0109846Y0155500D03*
X0103154Y0155500D03*
X0079846Y0155500D03*
X0073154Y0155500D03*
X0073154Y0165000D03*
X0079846Y0165000D03*
X0079846Y0063000D03*
X0073154Y0063000D03*
X0073154Y0053500D03*
X0079846Y0053500D03*
X0103154Y0053500D03*
X0109846Y0053500D03*
X0109846Y0063000D03*
X0103154Y0063000D03*
X0188154Y0063000D03*
X0194846Y0063000D03*
X0194846Y0053500D03*
X0188154Y0053500D03*
X0218154Y0053500D03*
X0224846Y0053500D03*
X0224846Y0063000D03*
X0218154Y0063000D03*
X0218154Y0155500D03*
X0224846Y0155500D03*
X0224846Y0165000D03*
X0218154Y0165000D03*
X0194846Y0165000D03*
X0188154Y0165000D03*
X0188154Y0155500D03*
X0194846Y0155500D03*
X0194846Y0257500D03*
X0188154Y0257500D03*
X0188154Y0267000D03*
X0194846Y0267000D03*
X0218154Y0267000D03*
X0224846Y0267000D03*
X0224846Y0257500D03*
X0218154Y0257500D03*
X0303154Y0257500D03*
X0309846Y0257500D03*
X0309846Y0267000D03*
X0303154Y0267000D03*
X0333154Y0267000D03*
X0339846Y0267000D03*
X0339846Y0257500D03*
X0333154Y0257500D03*
X0333154Y0165000D03*
X0339846Y0165000D03*
X0339846Y0155500D03*
X0333154Y0155500D03*
X0309846Y0155500D03*
X0303154Y0155500D03*
X0303154Y0165000D03*
X0309846Y0165000D03*
X0309846Y0063000D03*
X0303154Y0063000D03*
X0303154Y0053500D03*
X0309846Y0053500D03*
X0333154Y0053500D03*
X0339846Y0053500D03*
X0339846Y0063000D03*
X0333154Y0063000D03*
X0418154Y0063000D03*
X0424846Y0063000D03*
X0424846Y0053500D03*
X0418154Y0053500D03*
X0448154Y0053500D03*
X0454846Y0053500D03*
X0454846Y0063000D03*
X0448154Y0063000D03*
X0448154Y0155500D03*
X0454846Y0155500D03*
X0454846Y0165000D03*
X0448154Y0165000D03*
X0424846Y0165000D03*
X0418154Y0165000D03*
X0418154Y0155500D03*
X0424846Y0155500D03*
X0424846Y0257500D03*
X0418154Y0257500D03*
X0418154Y0267000D03*
X0424846Y0267000D03*
X0448154Y0267000D03*
X0454846Y0267000D03*
X0454846Y0257500D03*
X0448154Y0257500D03*
X0533154Y0257500D03*
X0539846Y0257500D03*
X0539846Y0267000D03*
X0533154Y0267000D03*
X0563154Y0267000D03*
X0569846Y0267000D03*
X0569846Y0257500D03*
X0563154Y0257500D03*
X0563154Y0165000D03*
X0569846Y0165000D03*
X0569846Y0155500D03*
X0563154Y0155500D03*
X0539846Y0155500D03*
X0533154Y0155500D03*
X0533154Y0165000D03*
X0539846Y0165000D03*
X0539846Y0063000D03*
X0533154Y0063000D03*
X0533154Y0053500D03*
X0539846Y0053500D03*
X0563154Y0053500D03*
X0569846Y0053500D03*
X0569846Y0063000D03*
X0563154Y0063000D03*
X0648154Y0063000D03*
X0654846Y0063000D03*
X0654846Y0053500D03*
X0648154Y0053500D03*
X0678154Y0053500D03*
X0684846Y0053500D03*
X0684846Y0063000D03*
X0678154Y0063000D03*
X0678154Y0155500D03*
X0684846Y0155500D03*
X0684846Y0165000D03*
X0678154Y0165000D03*
X0654846Y0165000D03*
X0648154Y0165000D03*
X0648154Y0155500D03*
X0654846Y0155500D03*
X0654846Y0257500D03*
X0648154Y0257500D03*
X0648154Y0267000D03*
X0654846Y0267000D03*
X0678154Y0267000D03*
X0684846Y0267000D03*
X0684846Y0257500D03*
X0678154Y0257500D03*
X0763154Y0257500D03*
X0769846Y0257500D03*
X0769846Y0267000D03*
X0763154Y0267000D03*
X0793154Y0267000D03*
X0799846Y0267000D03*
X0799846Y0257500D03*
X0793154Y0257500D03*
X0793154Y0165000D03*
X0799846Y0165000D03*
X0799846Y0155500D03*
X0793154Y0155500D03*
X0769846Y0155500D03*
X0763154Y0155500D03*
X0763154Y0165000D03*
X0769846Y0165000D03*
X0769846Y0063000D03*
X0763154Y0063000D03*
X0763154Y0053500D03*
X0769846Y0053500D03*
X0793154Y0053500D03*
X0799846Y0053500D03*
X0799846Y0063000D03*
X0793154Y0063000D03*
X0793154Y0359500D03*
X0799846Y0359500D03*
X0799846Y0369000D03*
X0793154Y0369000D03*
X0769846Y0369000D03*
X0763154Y0369000D03*
X0763154Y0359500D03*
X0769846Y0359500D03*
X0769846Y0461500D03*
X0763154Y0461500D03*
X0763154Y0471000D03*
X0769846Y0471000D03*
X0793154Y0471000D03*
X0799846Y0471000D03*
X0799846Y0461500D03*
X0793154Y0461500D03*
X0793154Y0563500D03*
X0799846Y0563500D03*
X0799846Y0573000D03*
X0793154Y0573000D03*
X0769846Y0573000D03*
X0763154Y0573000D03*
X0763154Y0563500D03*
X0769846Y0563500D03*
X0769846Y0665500D03*
X0763154Y0665500D03*
X0763154Y0675000D03*
X0769846Y0675000D03*
X0793154Y0675000D03*
X0799846Y0675000D03*
X0799846Y0665500D03*
X0793154Y0665500D03*
X0793154Y0767500D03*
X0799846Y0767500D03*
X0799846Y0777000D03*
X0793154Y0777000D03*
X0769846Y0777000D03*
X0763154Y0777000D03*
X0763154Y0767500D03*
X0769846Y0767500D03*
X0769846Y0869500D03*
X0763154Y0869500D03*
X0763154Y0879000D03*
X0769846Y0879000D03*
X0793154Y0879000D03*
X0799846Y0879000D03*
X0799846Y0869500D03*
X0793154Y0869500D03*
X0684846Y0869500D03*
X0678154Y0869500D03*
X0678154Y0879000D03*
X0684846Y0879000D03*
X0654846Y0879000D03*
X0648154Y0879000D03*
X0648154Y0869500D03*
X0654846Y0869500D03*
X0654846Y0777000D03*
X0648154Y0777000D03*
X0648154Y0767500D03*
X0654846Y0767500D03*
X0678154Y0767500D03*
X0684846Y0767500D03*
X0684846Y0777000D03*
X0678154Y0777000D03*
X0678154Y0675000D03*
X0684846Y0675000D03*
X0684846Y0665500D03*
X0678154Y0665500D03*
X0654846Y0665500D03*
X0648154Y0665500D03*
X0648154Y0675000D03*
X0654846Y0675000D03*
X0654846Y0573000D03*
X0648154Y0573000D03*
X0648154Y0563500D03*
X0654846Y0563500D03*
X0678154Y0563500D03*
X0684846Y0563500D03*
X0684846Y0573000D03*
X0678154Y0573000D03*
X0678154Y0471000D03*
X0684846Y0471000D03*
X0684846Y0461500D03*
X0678154Y0461500D03*
X0654846Y0461500D03*
X0648154Y0461500D03*
X0648154Y0471000D03*
X0654846Y0471000D03*
X0654846Y0369000D03*
X0648154Y0369000D03*
X0648154Y0359500D03*
X0654846Y0359500D03*
X0678154Y0359500D03*
X0684846Y0359500D03*
X0684846Y0369000D03*
X0678154Y0369000D03*
X0569846Y0369000D03*
X0563154Y0369000D03*
X0563154Y0359500D03*
X0569846Y0359500D03*
X0539846Y0359500D03*
X0533154Y0359500D03*
X0533154Y0369000D03*
X0539846Y0369000D03*
X0539846Y0461500D03*
X0533154Y0461500D03*
X0533154Y0471000D03*
X0539846Y0471000D03*
X0563154Y0471000D03*
X0569846Y0471000D03*
X0569846Y0461500D03*
X0563154Y0461500D03*
X0563154Y0563500D03*
X0569846Y0563500D03*
X0569846Y0573000D03*
X0563154Y0573000D03*
X0539846Y0573000D03*
X0533154Y0573000D03*
X0533154Y0563500D03*
X0539846Y0563500D03*
X0454846Y0563500D03*
X0448154Y0563500D03*
X0448154Y0573000D03*
X0454846Y0573000D03*
X0424846Y0573000D03*
X0418154Y0573000D03*
X0418154Y0563500D03*
X0424846Y0563500D03*
X0424846Y0471000D03*
X0418154Y0471000D03*
X0418154Y0461500D03*
X0424846Y0461500D03*
X0448154Y0461500D03*
X0454846Y0461500D03*
X0454846Y0471000D03*
X0448154Y0471000D03*
X0448154Y0369000D03*
X0454846Y0369000D03*
X0454846Y0359500D03*
X0448154Y0359500D03*
X0424846Y0359500D03*
X0418154Y0359500D03*
X0418154Y0369000D03*
X0424846Y0369000D03*
X0339846Y0369000D03*
X0333154Y0369000D03*
X0333154Y0359500D03*
X0339846Y0359500D03*
X0309846Y0359500D03*
X0303154Y0359500D03*
X0303154Y0369000D03*
X0309846Y0369000D03*
X0309846Y0461500D03*
X0303154Y0461500D03*
X0303154Y0471000D03*
X0309846Y0471000D03*
X0333154Y0471000D03*
X0339846Y0471000D03*
X0339846Y0461500D03*
X0333154Y0461500D03*
X0333154Y0563500D03*
X0339846Y0563500D03*
X0339846Y0573000D03*
X0333154Y0573000D03*
X0309846Y0573000D03*
X0303154Y0573000D03*
X0303154Y0563500D03*
X0309846Y0563500D03*
X0309846Y0665500D03*
X0303154Y0665500D03*
X0303154Y0675000D03*
X0309846Y0675000D03*
X0333154Y0675000D03*
X0339846Y0675000D03*
X0339846Y0665500D03*
X0333154Y0665500D03*
X0418154Y0665500D03*
X0424846Y0665500D03*
X0424846Y0675000D03*
X0418154Y0675000D03*
X0448154Y0675000D03*
X0454846Y0675000D03*
X0454846Y0665500D03*
X0448154Y0665500D03*
X0533154Y0665500D03*
X0539846Y0665500D03*
X0539846Y0675000D03*
X0533154Y0675000D03*
X0563154Y0675000D03*
X0569846Y0675000D03*
X0569846Y0665500D03*
X0563154Y0665500D03*
X0563154Y0767500D03*
X0569846Y0767500D03*
X0569846Y0777000D03*
X0563154Y0777000D03*
X0539846Y0777000D03*
X0533154Y0777000D03*
X0533154Y0767500D03*
X0539846Y0767500D03*
X0454846Y0767500D03*
X0448154Y0767500D03*
X0448154Y0777000D03*
X0454846Y0777000D03*
X0424846Y0777000D03*
X0418154Y0777000D03*
X0418154Y0767500D03*
X0424846Y0767500D03*
X0424846Y0869500D03*
X0418154Y0869500D03*
X0418154Y0879000D03*
X0424846Y0879000D03*
X0448154Y0879000D03*
X0454846Y0879000D03*
X0454846Y0869500D03*
X0448154Y0869500D03*
X0533154Y0869500D03*
X0539846Y0869500D03*
X0539846Y0879000D03*
X0533154Y0879000D03*
X0563154Y0879000D03*
X0569846Y0879000D03*
X0569846Y0869500D03*
X0563154Y0869500D03*
X0339846Y0869500D03*
X0333154Y0869500D03*
X0333154Y0879000D03*
X0339846Y0879000D03*
X0309846Y0879000D03*
X0303154Y0879000D03*
X0303154Y0869500D03*
X0309846Y0869500D03*
X0309846Y0777000D03*
X0303154Y0777000D03*
X0303154Y0767500D03*
X0309846Y0767500D03*
X0333154Y0767500D03*
X0339846Y0767500D03*
X0339846Y0777000D03*
X0333154Y0777000D03*
X0224846Y0777000D03*
X0218154Y0777000D03*
X0218154Y0767500D03*
X0224846Y0767500D03*
X0194846Y0767500D03*
X0188154Y0767500D03*
X0188154Y0777000D03*
X0194846Y0777000D03*
X0194846Y0869500D03*
X0188154Y0869500D03*
X0188154Y0879000D03*
X0194846Y0879000D03*
X0218154Y0879000D03*
X0224846Y0879000D03*
X0224846Y0869500D03*
X0218154Y0869500D03*
X0218154Y0675000D03*
X0224846Y0675000D03*
X0224846Y0665500D03*
X0218154Y0665500D03*
X0194846Y0665500D03*
X0188154Y0665500D03*
X0188154Y0675000D03*
X0194846Y0675000D03*
X0194846Y0573000D03*
X0188154Y0573000D03*
X0188154Y0563500D03*
X0194846Y0563500D03*
X0218154Y0563500D03*
X0224846Y0563500D03*
X0224846Y0573000D03*
X0218154Y0573000D03*
X0218154Y0471000D03*
X0224846Y0471000D03*
X0224846Y0461500D03*
X0218154Y0461500D03*
X0194846Y0461500D03*
X0188154Y0461500D03*
X0188154Y0471000D03*
X0194846Y0471000D03*
X0194846Y0369000D03*
X0188154Y0369000D03*
X0188154Y0359500D03*
X0194846Y0359500D03*
X0218154Y0359500D03*
X0224846Y0359500D03*
X0224846Y0369000D03*
X0218154Y0369000D03*
D13*
X0206500Y0359500D03*
X0206500Y0461500D03*
X0206500Y0563500D03*
X0206500Y0665500D03*
X0206500Y0767500D03*
X0206500Y0869500D03*
X0206500Y0971500D03*
X0091500Y0971500D03*
X0091500Y0869500D03*
X0091500Y0767500D03*
X0091500Y0665500D03*
X0091500Y0563500D03*
X0091500Y0461500D03*
X0091500Y0359500D03*
X0091500Y0257500D03*
X0091500Y0155500D03*
X0091500Y0053500D03*
X0206500Y0053500D03*
X0206500Y0155500D03*
X0206500Y0257500D03*
X0321500Y0257500D03*
X0321500Y0155500D03*
X0321500Y0053500D03*
X0436500Y0053500D03*
X0436500Y0155500D03*
X0436500Y0257500D03*
X0436500Y0359500D03*
X0436500Y0461500D03*
X0436500Y0563500D03*
X0436500Y0665500D03*
X0436500Y0767500D03*
X0436500Y0869500D03*
X0436500Y0971500D03*
X0551500Y0971500D03*
X0551500Y0869500D03*
X0551500Y0767500D03*
X0551500Y0665500D03*
X0551500Y0563500D03*
X0551500Y0461500D03*
X0551500Y0359500D03*
X0551500Y0257500D03*
X0551500Y0155500D03*
X0551500Y0053500D03*
X0666500Y0053500D03*
X0666500Y0155500D03*
X0666500Y0257500D03*
X0666500Y0359500D03*
X0666500Y0461500D03*
X0666500Y0563500D03*
X0666500Y0665500D03*
X0666500Y0767500D03*
X0666500Y0869500D03*
X0666500Y0971500D03*
X0781500Y0971500D03*
X0781500Y0869500D03*
X0781500Y0767500D03*
X0781500Y0665500D03*
X0781500Y0563500D03*
X0781500Y0461500D03*
X0781500Y0359500D03*
X0781500Y0257500D03*
X0781500Y0155500D03*
X0781500Y0053500D03*
X0321500Y0359500D03*
X0321500Y0461500D03*
X0321500Y0563500D03*
X0321500Y0665500D03*
X0321500Y0767500D03*
X0321500Y0869500D03*
X0321500Y0971500D03*
D14*
X0341776Y1014000D03*
X0341776Y0912000D03*
X0341776Y0810000D03*
X0341776Y0708000D03*
X0341776Y0606000D03*
X0341776Y0504000D03*
X0341776Y0402000D03*
X0341776Y0300000D03*
X0341776Y0198000D03*
X0341776Y0096000D03*
X0456776Y0096000D03*
X0456776Y0198000D03*
X0456776Y0300000D03*
X0456776Y0402000D03*
X0456776Y0504000D03*
X0456776Y0606000D03*
X0456776Y0708000D03*
X0456776Y0810000D03*
X0456776Y0912000D03*
X0456776Y1014000D03*
X0571776Y1014000D03*
X0571776Y0912000D03*
X0571776Y0810000D03*
X0571776Y0708000D03*
X0571776Y0606000D03*
X0571776Y0504000D03*
X0571776Y0402000D03*
X0571776Y0300000D03*
X0571776Y0198000D03*
X0571776Y0096000D03*
X0686776Y0096000D03*
X0686776Y0198000D03*
X0686776Y0300000D03*
X0686776Y0402000D03*
X0686776Y0504000D03*
X0686776Y0606000D03*
X0686776Y0708000D03*
X0686776Y0810000D03*
X0686776Y0912000D03*
X0686776Y1014000D03*
X0801776Y1014000D03*
X0801776Y0912000D03*
X0801776Y0810000D03*
X0801776Y0708000D03*
X0801776Y0606000D03*
X0801776Y0504000D03*
X0801776Y0402000D03*
X0801776Y0300000D03*
X0801776Y0198000D03*
X0801776Y0096000D03*
X0226776Y0096000D03*
X0226776Y0198000D03*
X0226776Y0300000D03*
X0226776Y0402000D03*
X0226776Y0504000D03*
X0226776Y0606000D03*
X0226776Y0708000D03*
X0226776Y0810000D03*
X0226776Y0912000D03*
X0226776Y1014000D03*
X0111776Y1014000D03*
X0111776Y0912000D03*
X0111776Y0810000D03*
X0111776Y0708000D03*
X0111776Y0606000D03*
X0111776Y0504000D03*
X0111776Y0402000D03*
X0111776Y0300000D03*
X0111776Y0198000D03*
X0111776Y0096000D03*
D15*
X0071815Y0096000D03*
X0071815Y0198000D03*
X0071815Y0300000D03*
X0071815Y0402000D03*
X0071815Y0504000D03*
X0071815Y0606000D03*
X0071815Y0708000D03*
X0071815Y0810000D03*
X0071815Y0912000D03*
X0071815Y1014000D03*
X0186815Y1014000D03*
X0186815Y0912000D03*
X0186815Y0810000D03*
X0186815Y0708000D03*
X0186815Y0606000D03*
X0186815Y0504000D03*
X0186815Y0402000D03*
X0186815Y0300000D03*
X0186815Y0198000D03*
X0186815Y0096000D03*
X0301815Y0096000D03*
X0301815Y0198000D03*
X0301815Y0300000D03*
X0301815Y0402000D03*
X0301815Y0504000D03*
X0301815Y0606000D03*
X0301815Y0708000D03*
X0301815Y0810000D03*
X0301815Y0912000D03*
X0301815Y1014000D03*
X0416815Y1014000D03*
X0416815Y0912000D03*
X0416815Y0810000D03*
X0416815Y0708000D03*
X0416815Y0606000D03*
X0416815Y0504000D03*
X0416815Y0402000D03*
X0416815Y0300000D03*
X0416815Y0198000D03*
X0416815Y0096000D03*
X0531815Y0096000D03*
X0531815Y0198000D03*
X0531815Y0300000D03*
X0531815Y0402000D03*
X0531815Y0504000D03*
X0531815Y0606000D03*
X0531815Y0708000D03*
X0531815Y0810000D03*
X0531815Y0912000D03*
X0531815Y1014000D03*
X0646815Y1014000D03*
X0646815Y0912000D03*
X0646815Y0810000D03*
X0646815Y0708000D03*
X0646815Y0606000D03*
X0646815Y0504000D03*
X0646815Y0402000D03*
X0646815Y0300000D03*
X0646815Y0198000D03*
X0646815Y0096000D03*
X0761815Y0096000D03*
X0761815Y0198000D03*
X0761815Y0300000D03*
X0761815Y0402000D03*
X0761815Y0504000D03*
X0761815Y0606000D03*
X0761815Y0708000D03*
X0761815Y0810000D03*
X0761815Y0912000D03*
X0761815Y1014000D03*
D16*
X0775201Y0995831D03*
X0778350Y0995831D03*
X0781500Y0995831D03*
X0784650Y0995831D03*
X0787799Y0995831D03*
X0787799Y0987169D03*
X0784650Y0987169D03*
X0781500Y0987169D03*
X0778350Y0987169D03*
X0775201Y0987169D03*
X0775201Y0893831D03*
X0778350Y0893831D03*
X0781500Y0893831D03*
X0784650Y0893831D03*
X0787799Y0893831D03*
X0787799Y0885169D03*
X0784650Y0885169D03*
X0781500Y0885169D03*
X0778350Y0885169D03*
X0775201Y0885169D03*
X0775201Y0791831D03*
X0778350Y0791831D03*
X0781500Y0791831D03*
X0784650Y0791831D03*
X0787799Y0791831D03*
X0787799Y0783169D03*
X0784650Y0783169D03*
X0781500Y0783169D03*
X0778350Y0783169D03*
X0775201Y0783169D03*
X0775201Y0689831D03*
X0778350Y0689831D03*
X0781500Y0689831D03*
X0784650Y0689831D03*
X0787799Y0689831D03*
X0787799Y0681169D03*
X0784650Y0681169D03*
X0781500Y0681169D03*
X0778350Y0681169D03*
X0775201Y0681169D03*
X0775201Y0587831D03*
X0778350Y0587831D03*
X0781500Y0587831D03*
X0784650Y0587831D03*
X0787799Y0587831D03*
X0787799Y0579169D03*
X0784650Y0579169D03*
X0781500Y0579169D03*
X0778350Y0579169D03*
X0775201Y0579169D03*
X0775201Y0485831D03*
X0778350Y0485831D03*
X0781500Y0485831D03*
X0784650Y0485831D03*
X0787799Y0485831D03*
X0787799Y0477169D03*
X0784650Y0477169D03*
X0781500Y0477169D03*
X0778350Y0477169D03*
X0775201Y0477169D03*
X0775201Y0383831D03*
X0778350Y0383831D03*
X0781500Y0383831D03*
X0784650Y0383831D03*
X0787799Y0383831D03*
X0787799Y0375169D03*
X0784650Y0375169D03*
X0781500Y0375169D03*
X0778350Y0375169D03*
X0775201Y0375169D03*
X0775201Y0281831D03*
X0778350Y0281831D03*
X0781500Y0281831D03*
X0784650Y0281831D03*
X0787799Y0281831D03*
X0787799Y0273169D03*
X0784650Y0273169D03*
X0781500Y0273169D03*
X0778350Y0273169D03*
X0775201Y0273169D03*
X0775201Y0179831D03*
X0778350Y0179831D03*
X0781500Y0179831D03*
X0784650Y0179831D03*
X0787799Y0179831D03*
X0787799Y0171169D03*
X0784650Y0171169D03*
X0781500Y0171169D03*
X0778350Y0171169D03*
X0775201Y0171169D03*
X0775201Y0077831D03*
X0778350Y0077831D03*
X0781500Y0077831D03*
X0784650Y0077831D03*
X0787799Y0077831D03*
X0787799Y0069169D03*
X0784650Y0069169D03*
X0781500Y0069169D03*
X0778350Y0069169D03*
X0775201Y0069169D03*
X0672799Y0069169D03*
X0669650Y0069169D03*
X0666500Y0069169D03*
X0663350Y0069169D03*
X0660201Y0069169D03*
X0660201Y0077831D03*
X0663350Y0077831D03*
X0666500Y0077831D03*
X0669650Y0077831D03*
X0672799Y0077831D03*
X0672799Y0171169D03*
X0669650Y0171169D03*
X0666500Y0171169D03*
X0663350Y0171169D03*
X0660201Y0171169D03*
X0660201Y0179831D03*
X0663350Y0179831D03*
X0666500Y0179831D03*
X0669650Y0179831D03*
X0672799Y0179831D03*
X0672799Y0273169D03*
X0669650Y0273169D03*
X0666500Y0273169D03*
X0663350Y0273169D03*
X0660201Y0273169D03*
X0660201Y0281831D03*
X0663350Y0281831D03*
X0666500Y0281831D03*
X0669650Y0281831D03*
X0672799Y0281831D03*
X0672799Y0375169D03*
X0669650Y0375169D03*
X0666500Y0375169D03*
X0663350Y0375169D03*
X0660201Y0375169D03*
X0660201Y0383831D03*
X0663350Y0383831D03*
X0666500Y0383831D03*
X0669650Y0383831D03*
X0672799Y0383831D03*
X0672799Y0477169D03*
X0669650Y0477169D03*
X0666500Y0477169D03*
X0663350Y0477169D03*
X0660201Y0477169D03*
X0660201Y0485831D03*
X0663350Y0485831D03*
X0666500Y0485831D03*
X0669650Y0485831D03*
X0672799Y0485831D03*
X0672799Y0579169D03*
X0669650Y0579169D03*
X0666500Y0579169D03*
X0663350Y0579169D03*
X0660201Y0579169D03*
X0660201Y0587831D03*
X0663350Y0587831D03*
X0666500Y0587831D03*
X0669650Y0587831D03*
X0672799Y0587831D03*
X0672799Y0681169D03*
X0669650Y0681169D03*
X0666500Y0681169D03*
X0663350Y0681169D03*
X0660201Y0681169D03*
X0660201Y0689831D03*
X0663350Y0689831D03*
X0666500Y0689831D03*
X0669650Y0689831D03*
X0672799Y0689831D03*
X0672799Y0783169D03*
X0669650Y0783169D03*
X0666500Y0783169D03*
X0663350Y0783169D03*
X0660201Y0783169D03*
X0660201Y0791831D03*
X0663350Y0791831D03*
X0666500Y0791831D03*
X0669650Y0791831D03*
X0672799Y0791831D03*
X0672799Y0885169D03*
X0669650Y0885169D03*
X0666500Y0885169D03*
X0663350Y0885169D03*
X0660201Y0885169D03*
X0660201Y0893831D03*
X0663350Y0893831D03*
X0666500Y0893831D03*
X0669650Y0893831D03*
X0672799Y0893831D03*
X0672799Y0987169D03*
X0669650Y0987169D03*
X0666500Y0987169D03*
X0663350Y0987169D03*
X0660201Y0987169D03*
X0660201Y0995831D03*
X0663350Y0995831D03*
X0666500Y0995831D03*
X0669650Y0995831D03*
X0672799Y0995831D03*
X0557799Y0995831D03*
X0554650Y0995831D03*
X0551500Y0995831D03*
X0548350Y0995831D03*
X0545201Y0995831D03*
X0545201Y0987169D03*
X0548350Y0987169D03*
X0551500Y0987169D03*
X0554650Y0987169D03*
X0557799Y0987169D03*
X0557799Y0893831D03*
X0554650Y0893831D03*
X0551500Y0893831D03*
X0548350Y0893831D03*
X0545201Y0893831D03*
X0545201Y0885169D03*
X0548350Y0885169D03*
X0551500Y0885169D03*
X0554650Y0885169D03*
X0557799Y0885169D03*
X0557799Y0791831D03*
X0554650Y0791831D03*
X0551500Y0791831D03*
X0548350Y0791831D03*
X0545201Y0791831D03*
X0545201Y0783169D03*
X0548350Y0783169D03*
X0551500Y0783169D03*
X0554650Y0783169D03*
X0557799Y0783169D03*
X0557799Y0689831D03*
X0554650Y0689831D03*
X0551500Y0689831D03*
X0548350Y0689831D03*
X0545201Y0689831D03*
X0545201Y0681169D03*
X0548350Y0681169D03*
X0551500Y0681169D03*
X0554650Y0681169D03*
X0557799Y0681169D03*
X0557799Y0587831D03*
X0554650Y0587831D03*
X0551500Y0587831D03*
X0548350Y0587831D03*
X0545201Y0587831D03*
X0545201Y0579169D03*
X0548350Y0579169D03*
X0551500Y0579169D03*
X0554650Y0579169D03*
X0557799Y0579169D03*
X0557799Y0485831D03*
X0554650Y0485831D03*
X0551500Y0485831D03*
X0548350Y0485831D03*
X0545201Y0485831D03*
X0545201Y0477169D03*
X0548350Y0477169D03*
X0551500Y0477169D03*
X0554650Y0477169D03*
X0557799Y0477169D03*
X0557799Y0383831D03*
X0554650Y0383831D03*
X0551500Y0383831D03*
X0548350Y0383831D03*
X0545201Y0383831D03*
X0545201Y0375169D03*
X0548350Y0375169D03*
X0551500Y0375169D03*
X0554650Y0375169D03*
X0557799Y0375169D03*
X0557799Y0281831D03*
X0554650Y0281831D03*
X0551500Y0281831D03*
X0548350Y0281831D03*
X0545201Y0281831D03*
X0545201Y0273169D03*
X0548350Y0273169D03*
X0551500Y0273169D03*
X0554650Y0273169D03*
X0557799Y0273169D03*
X0557799Y0179831D03*
X0554650Y0179831D03*
X0551500Y0179831D03*
X0548350Y0179831D03*
X0545201Y0179831D03*
X0545201Y0171169D03*
X0548350Y0171169D03*
X0551500Y0171169D03*
X0554650Y0171169D03*
X0557799Y0171169D03*
X0557799Y0077831D03*
X0554650Y0077831D03*
X0551500Y0077831D03*
X0548350Y0077831D03*
X0545201Y0077831D03*
X0545201Y0069169D03*
X0548350Y0069169D03*
X0551500Y0069169D03*
X0554650Y0069169D03*
X0557799Y0069169D03*
X0442799Y0069169D03*
X0439650Y0069169D03*
X0436500Y0069169D03*
X0433350Y0069169D03*
X0430201Y0069169D03*
X0430201Y0077831D03*
X0433350Y0077831D03*
X0436500Y0077831D03*
X0439650Y0077831D03*
X0442799Y0077831D03*
X0442799Y0171169D03*
X0439650Y0171169D03*
X0436500Y0171169D03*
X0433350Y0171169D03*
X0430201Y0171169D03*
X0430201Y0179831D03*
X0433350Y0179831D03*
X0436500Y0179831D03*
X0439650Y0179831D03*
X0442799Y0179831D03*
X0442799Y0273169D03*
X0439650Y0273169D03*
X0436500Y0273169D03*
X0433350Y0273169D03*
X0430201Y0273169D03*
X0430201Y0281831D03*
X0433350Y0281831D03*
X0436500Y0281831D03*
X0439650Y0281831D03*
X0442799Y0281831D03*
X0442799Y0375169D03*
X0439650Y0375169D03*
X0436500Y0375169D03*
X0433350Y0375169D03*
X0430201Y0375169D03*
X0430201Y0383831D03*
X0433350Y0383831D03*
X0436500Y0383831D03*
X0439650Y0383831D03*
X0442799Y0383831D03*
X0442799Y0477169D03*
X0439650Y0477169D03*
X0436500Y0477169D03*
X0433350Y0477169D03*
X0430201Y0477169D03*
X0430201Y0485831D03*
X0433350Y0485831D03*
X0436500Y0485831D03*
X0439650Y0485831D03*
X0442799Y0485831D03*
X0442799Y0579169D03*
X0439650Y0579169D03*
X0436500Y0579169D03*
X0433350Y0579169D03*
X0430201Y0579169D03*
X0430201Y0587831D03*
X0433350Y0587831D03*
X0436500Y0587831D03*
X0439650Y0587831D03*
X0442799Y0587831D03*
X0442799Y0681169D03*
X0439650Y0681169D03*
X0436500Y0681169D03*
X0433350Y0681169D03*
X0430201Y0681169D03*
X0430201Y0689831D03*
X0433350Y0689831D03*
X0436500Y0689831D03*
X0439650Y0689831D03*
X0442799Y0689831D03*
X0442799Y0783169D03*
X0439650Y0783169D03*
X0436500Y0783169D03*
X0433350Y0783169D03*
X0430201Y0783169D03*
X0430201Y0791831D03*
X0433350Y0791831D03*
X0436500Y0791831D03*
X0439650Y0791831D03*
X0442799Y0791831D03*
X0442799Y0885169D03*
X0439650Y0885169D03*
X0436500Y0885169D03*
X0433350Y0885169D03*
X0430201Y0885169D03*
X0430201Y0893831D03*
X0433350Y0893831D03*
X0436500Y0893831D03*
X0439650Y0893831D03*
X0442799Y0893831D03*
X0442799Y0987169D03*
X0439650Y0987169D03*
X0436500Y0987169D03*
X0433350Y0987169D03*
X0430201Y0987169D03*
X0430201Y0995831D03*
X0433350Y0995831D03*
X0436500Y0995831D03*
X0439650Y0995831D03*
X0442799Y0995831D03*
X0327799Y0995831D03*
X0324650Y0995831D03*
X0321500Y0995831D03*
X0318350Y0995831D03*
X0315201Y0995831D03*
X0315201Y0987169D03*
X0318350Y0987169D03*
X0321500Y0987169D03*
X0324650Y0987169D03*
X0327799Y0987169D03*
X0327799Y0893831D03*
X0324650Y0893831D03*
X0321500Y0893831D03*
X0318350Y0893831D03*
X0315201Y0893831D03*
X0315201Y0885169D03*
X0318350Y0885169D03*
X0321500Y0885169D03*
X0324650Y0885169D03*
X0327799Y0885169D03*
X0327799Y0791831D03*
X0324650Y0791831D03*
X0321500Y0791831D03*
X0318350Y0791831D03*
X0315201Y0791831D03*
X0315201Y0783169D03*
X0318350Y0783169D03*
X0321500Y0783169D03*
X0324650Y0783169D03*
X0327799Y0783169D03*
X0327799Y0689831D03*
X0324650Y0689831D03*
X0321500Y0689831D03*
X0318350Y0689831D03*
X0315201Y0689831D03*
X0315201Y0681169D03*
X0318350Y0681169D03*
X0321500Y0681169D03*
X0324650Y0681169D03*
X0327799Y0681169D03*
X0327799Y0587831D03*
X0324650Y0587831D03*
X0321500Y0587831D03*
X0318350Y0587831D03*
X0315201Y0587831D03*
X0315201Y0579169D03*
X0318350Y0579169D03*
X0321500Y0579169D03*
X0324650Y0579169D03*
X0327799Y0579169D03*
X0327799Y0485831D03*
X0324650Y0485831D03*
X0321500Y0485831D03*
X0318350Y0485831D03*
X0315201Y0485831D03*
X0315201Y0477169D03*
X0318350Y0477169D03*
X0321500Y0477169D03*
X0324650Y0477169D03*
X0327799Y0477169D03*
X0327799Y0383831D03*
X0324650Y0383831D03*
X0321500Y0383831D03*
X0318350Y0383831D03*
X0315201Y0383831D03*
X0315201Y0375169D03*
X0318350Y0375169D03*
X0321500Y0375169D03*
X0324650Y0375169D03*
X0327799Y0375169D03*
X0327799Y0281831D03*
X0324650Y0281831D03*
X0321500Y0281831D03*
X0318350Y0281831D03*
X0315201Y0281831D03*
X0315201Y0273169D03*
X0318350Y0273169D03*
X0321500Y0273169D03*
X0324650Y0273169D03*
X0327799Y0273169D03*
X0327799Y0179831D03*
X0324650Y0179831D03*
X0321500Y0179831D03*
X0318350Y0179831D03*
X0315201Y0179831D03*
X0315201Y0171169D03*
X0318350Y0171169D03*
X0321500Y0171169D03*
X0324650Y0171169D03*
X0327799Y0171169D03*
X0327799Y0077831D03*
X0324650Y0077831D03*
X0321500Y0077831D03*
X0318350Y0077831D03*
X0315201Y0077831D03*
X0315201Y0069169D03*
X0318350Y0069169D03*
X0321500Y0069169D03*
X0324650Y0069169D03*
X0327799Y0069169D03*
X0212799Y0069169D03*
X0209650Y0069169D03*
X0206500Y0069169D03*
X0203350Y0069169D03*
X0200201Y0069169D03*
X0200201Y0077831D03*
X0203350Y0077831D03*
X0206500Y0077831D03*
X0209650Y0077831D03*
X0212799Y0077831D03*
X0212799Y0171169D03*
X0209650Y0171169D03*
X0206500Y0171169D03*
X0203350Y0171169D03*
X0200201Y0171169D03*
X0200201Y0179831D03*
X0203350Y0179831D03*
X0206500Y0179831D03*
X0209650Y0179831D03*
X0212799Y0179831D03*
X0212799Y0273169D03*
X0209650Y0273169D03*
X0206500Y0273169D03*
X0203350Y0273169D03*
X0200201Y0273169D03*
X0200201Y0281831D03*
X0203350Y0281831D03*
X0206500Y0281831D03*
X0209650Y0281831D03*
X0212799Y0281831D03*
X0212799Y0375169D03*
X0209650Y0375169D03*
X0206500Y0375169D03*
X0203350Y0375169D03*
X0200201Y0375169D03*
X0200201Y0383831D03*
X0203350Y0383831D03*
X0206500Y0383831D03*
X0209650Y0383831D03*
X0212799Y0383831D03*
X0212799Y0477169D03*
X0209650Y0477169D03*
X0206500Y0477169D03*
X0203350Y0477169D03*
X0200201Y0477169D03*
X0200201Y0485831D03*
X0203350Y0485831D03*
X0206500Y0485831D03*
X0209650Y0485831D03*
X0212799Y0485831D03*
X0212799Y0579169D03*
X0209650Y0579169D03*
X0206500Y0579169D03*
X0203350Y0579169D03*
X0200201Y0579169D03*
X0200201Y0587831D03*
X0203350Y0587831D03*
X0206500Y0587831D03*
X0209650Y0587831D03*
X0212799Y0587831D03*
X0212799Y0681169D03*
X0209650Y0681169D03*
X0206500Y0681169D03*
X0203350Y0681169D03*
X0200201Y0681169D03*
X0200201Y0689831D03*
X0203350Y0689831D03*
X0206500Y0689831D03*
X0209650Y0689831D03*
X0212799Y0689831D03*
X0212799Y0783169D03*
X0209650Y0783169D03*
X0206500Y0783169D03*
X0203350Y0783169D03*
X0200201Y0783169D03*
X0200201Y0791831D03*
X0203350Y0791831D03*
X0206500Y0791831D03*
X0209650Y0791831D03*
X0212799Y0791831D03*
X0212799Y0885169D03*
X0209650Y0885169D03*
X0206500Y0885169D03*
X0203350Y0885169D03*
X0200201Y0885169D03*
X0200201Y0893831D03*
X0203350Y0893831D03*
X0206500Y0893831D03*
X0209650Y0893831D03*
X0212799Y0893831D03*
X0212799Y0987169D03*
X0209650Y0987169D03*
X0206500Y0987169D03*
X0203350Y0987169D03*
X0200201Y0987169D03*
X0200201Y0995831D03*
X0203350Y0995831D03*
X0206500Y0995831D03*
X0209650Y0995831D03*
X0212799Y0995831D03*
X0097799Y0995831D03*
X0094650Y0995831D03*
X0091500Y0995831D03*
X0088350Y0995831D03*
X0085201Y0995831D03*
X0085201Y0987169D03*
X0088350Y0987169D03*
X0091500Y0987169D03*
X0094650Y0987169D03*
X0097799Y0987169D03*
X0097799Y0893831D03*
X0094650Y0893831D03*
X0091500Y0893831D03*
X0088350Y0893831D03*
X0085201Y0893831D03*
X0085201Y0885169D03*
X0088350Y0885169D03*
X0091500Y0885169D03*
X0094650Y0885169D03*
X0097799Y0885169D03*
X0097799Y0791831D03*
X0094650Y0791831D03*
X0091500Y0791831D03*
X0088350Y0791831D03*
X0085201Y0791831D03*
X0085201Y0783169D03*
X0088350Y0783169D03*
X0091500Y0783169D03*
X0094650Y0783169D03*
X0097799Y0783169D03*
X0097799Y0689831D03*
X0094650Y0689831D03*
X0091500Y0689831D03*
X0088350Y0689831D03*
X0085201Y0689831D03*
X0085201Y0681169D03*
X0088350Y0681169D03*
X0091500Y0681169D03*
X0094650Y0681169D03*
X0097799Y0681169D03*
X0097799Y0587831D03*
X0094650Y0587831D03*
X0091500Y0587831D03*
X0088350Y0587831D03*
X0085201Y0587831D03*
X0085201Y0579169D03*
X0088350Y0579169D03*
X0091500Y0579169D03*
X0094650Y0579169D03*
X0097799Y0579169D03*
X0097799Y0485831D03*
X0094650Y0485831D03*
X0091500Y0485831D03*
X0088350Y0485831D03*
X0085201Y0485831D03*
X0085201Y0477169D03*
X0088350Y0477169D03*
X0091500Y0477169D03*
X0094650Y0477169D03*
X0097799Y0477169D03*
X0097799Y0383831D03*
X0094650Y0383831D03*
X0091500Y0383831D03*
X0088350Y0383831D03*
X0085201Y0383831D03*
X0085201Y0375169D03*
X0088350Y0375169D03*
X0091500Y0375169D03*
X0094650Y0375169D03*
X0097799Y0375169D03*
X0097799Y0281831D03*
X0094650Y0281831D03*
X0091500Y0281831D03*
X0088350Y0281831D03*
X0085201Y0281831D03*
X0085201Y0273169D03*
X0088350Y0273169D03*
X0091500Y0273169D03*
X0094650Y0273169D03*
X0097799Y0273169D03*
X0097799Y0179831D03*
X0094650Y0179831D03*
X0091500Y0179831D03*
X0088350Y0179831D03*
X0085201Y0179831D03*
X0085201Y0171169D03*
X0088350Y0171169D03*
X0091500Y0171169D03*
X0094650Y0171169D03*
X0097799Y0171169D03*
X0097799Y0077831D03*
X0094650Y0077831D03*
X0091500Y0077831D03*
X0088350Y0077831D03*
X0085201Y0077831D03*
X0085201Y0069169D03*
X0088350Y0069169D03*
X0091500Y0069169D03*
X0094650Y0069169D03*
X0097799Y0069169D03*
D17*
X0106500Y0070154D03*
X0106500Y0076846D03*
X0121500Y0097154D03*
X0121500Y0103846D03*
X0076500Y0076846D03*
X0076500Y0070154D03*
X0061500Y0097154D03*
X0061500Y0103846D03*
X0051500Y0103846D03*
X0051500Y0097154D03*
X0076500Y0172154D03*
X0076500Y0178846D03*
X0061500Y0199154D03*
X0061500Y0205846D03*
X0051500Y0205846D03*
X0051500Y0199154D03*
X0106500Y0178846D03*
X0106500Y0172154D03*
X0121500Y0199154D03*
X0121500Y0205846D03*
X0166500Y0205846D03*
X0166500Y0199154D03*
X0176500Y0199154D03*
X0176500Y0205846D03*
X0191500Y0178846D03*
X0191500Y0172154D03*
X0221500Y0172154D03*
X0221500Y0178846D03*
X0236500Y0199154D03*
X0236500Y0205846D03*
X0281500Y0205846D03*
X0281500Y0199154D03*
X0291500Y0199154D03*
X0291500Y0205846D03*
X0306500Y0178846D03*
X0306500Y0172154D03*
X0336500Y0172154D03*
X0336500Y0178846D03*
X0351500Y0199154D03*
X0351500Y0205846D03*
X0396500Y0205846D03*
X0396500Y0199154D03*
X0406500Y0199154D03*
X0406500Y0205846D03*
X0421500Y0178846D03*
X0421500Y0172154D03*
X0451500Y0172154D03*
X0451500Y0178846D03*
X0466500Y0199154D03*
X0466500Y0205846D03*
X0511500Y0205846D03*
X0511500Y0199154D03*
X0521500Y0199154D03*
X0521500Y0205846D03*
X0536500Y0178846D03*
X0536500Y0172154D03*
X0566500Y0172154D03*
X0566500Y0178846D03*
X0581500Y0199154D03*
X0581500Y0205846D03*
X0626500Y0205846D03*
X0626500Y0199154D03*
X0636500Y0199154D03*
X0636500Y0205846D03*
X0651500Y0178846D03*
X0651500Y0172154D03*
X0681500Y0172154D03*
X0681500Y0178846D03*
X0696500Y0199154D03*
X0696500Y0205846D03*
X0741500Y0205846D03*
X0741500Y0199154D03*
X0751500Y0199154D03*
X0751500Y0205846D03*
X0766500Y0178846D03*
X0766500Y0172154D03*
X0796500Y0172154D03*
X0796500Y0178846D03*
X0811500Y0199154D03*
X0811500Y0205846D03*
X0796500Y0274154D03*
X0796500Y0280846D03*
X0811500Y0301154D03*
X0811500Y0307846D03*
X0766500Y0280846D03*
X0766500Y0274154D03*
X0751500Y0301154D03*
X0751500Y0307846D03*
X0741500Y0307846D03*
X0741500Y0301154D03*
X0696500Y0301154D03*
X0696500Y0307846D03*
X0681500Y0280846D03*
X0681500Y0274154D03*
X0651500Y0274154D03*
X0651500Y0280846D03*
X0636500Y0301154D03*
X0636500Y0307846D03*
X0626500Y0307846D03*
X0626500Y0301154D03*
X0581500Y0301154D03*
X0581500Y0307846D03*
X0566500Y0280846D03*
X0566500Y0274154D03*
X0536500Y0274154D03*
X0536500Y0280846D03*
X0521500Y0301154D03*
X0521500Y0307846D03*
X0511500Y0307846D03*
X0511500Y0301154D03*
X0466500Y0301154D03*
X0466500Y0307846D03*
X0451500Y0280846D03*
X0451500Y0274154D03*
X0421500Y0274154D03*
X0421500Y0280846D03*
X0406500Y0301154D03*
X0406500Y0307846D03*
X0396500Y0307846D03*
X0396500Y0301154D03*
X0351500Y0301154D03*
X0351500Y0307846D03*
X0336500Y0280846D03*
X0336500Y0274154D03*
X0306500Y0274154D03*
X0306500Y0280846D03*
X0291500Y0301154D03*
X0291500Y0307846D03*
X0281500Y0307846D03*
X0281500Y0301154D03*
X0236500Y0301154D03*
X0236500Y0307846D03*
X0221500Y0280846D03*
X0221500Y0274154D03*
X0191500Y0274154D03*
X0191500Y0280846D03*
X0176500Y0301154D03*
X0176500Y0307846D03*
X0166500Y0307846D03*
X0166500Y0301154D03*
X0121500Y0301154D03*
X0121500Y0307846D03*
X0106500Y0280846D03*
X0106500Y0274154D03*
X0076500Y0274154D03*
X0076500Y0280846D03*
X0061500Y0301154D03*
X0061500Y0307846D03*
X0051500Y0307846D03*
X0051500Y0301154D03*
X0076500Y0376154D03*
X0076500Y0382846D03*
X0061500Y0403154D03*
X0061500Y0409846D03*
X0051500Y0409846D03*
X0051500Y0403154D03*
X0106500Y0382846D03*
X0106500Y0376154D03*
X0121500Y0403154D03*
X0121500Y0409846D03*
X0166500Y0409846D03*
X0166500Y0403154D03*
X0176500Y0403154D03*
X0176500Y0409846D03*
X0191500Y0382846D03*
X0191500Y0376154D03*
X0221500Y0376154D03*
X0221500Y0382846D03*
X0236500Y0403154D03*
X0236500Y0409846D03*
X0281500Y0409846D03*
X0281500Y0403154D03*
X0291500Y0403154D03*
X0291500Y0409846D03*
X0306500Y0382846D03*
X0306500Y0376154D03*
X0336500Y0376154D03*
X0336500Y0382846D03*
X0351500Y0403154D03*
X0351500Y0409846D03*
X0396500Y0409846D03*
X0396500Y0403154D03*
X0406500Y0403154D03*
X0406500Y0409846D03*
X0421500Y0382846D03*
X0421500Y0376154D03*
X0451500Y0376154D03*
X0451500Y0382846D03*
X0466500Y0403154D03*
X0466500Y0409846D03*
X0511500Y0409846D03*
X0511500Y0403154D03*
X0521500Y0403154D03*
X0521500Y0409846D03*
X0536500Y0382846D03*
X0536500Y0376154D03*
X0566500Y0376154D03*
X0566500Y0382846D03*
X0581500Y0403154D03*
X0581500Y0409846D03*
X0626500Y0409846D03*
X0626500Y0403154D03*
X0636500Y0403154D03*
X0636500Y0409846D03*
X0651500Y0382846D03*
X0651500Y0376154D03*
X0681500Y0376154D03*
X0681500Y0382846D03*
X0696500Y0403154D03*
X0696500Y0409846D03*
X0741500Y0409846D03*
X0741500Y0403154D03*
X0751500Y0403154D03*
X0751500Y0409846D03*
X0766500Y0382846D03*
X0766500Y0376154D03*
X0796500Y0376154D03*
X0796500Y0382846D03*
X0811500Y0403154D03*
X0811500Y0409846D03*
X0796500Y0478154D03*
X0796500Y0484846D03*
X0811500Y0505154D03*
X0811500Y0511846D03*
X0766500Y0484846D03*
X0766500Y0478154D03*
X0751500Y0505154D03*
X0751500Y0511846D03*
X0741500Y0511846D03*
X0741500Y0505154D03*
X0696500Y0505154D03*
X0696500Y0511846D03*
X0681500Y0484846D03*
X0681500Y0478154D03*
X0651500Y0478154D03*
X0651500Y0484846D03*
X0636500Y0505154D03*
X0636500Y0511846D03*
X0626500Y0511846D03*
X0626500Y0505154D03*
X0581500Y0505154D03*
X0581500Y0511846D03*
X0566500Y0484846D03*
X0566500Y0478154D03*
X0536500Y0478154D03*
X0536500Y0484846D03*
X0521500Y0505154D03*
X0521500Y0511846D03*
X0511500Y0511846D03*
X0511500Y0505154D03*
X0466500Y0505154D03*
X0466500Y0511846D03*
X0451500Y0484846D03*
X0451500Y0478154D03*
X0421500Y0478154D03*
X0421500Y0484846D03*
X0406500Y0505154D03*
X0406500Y0511846D03*
X0396500Y0511846D03*
X0396500Y0505154D03*
X0351500Y0505154D03*
X0351500Y0511846D03*
X0336500Y0484846D03*
X0336500Y0478154D03*
X0306500Y0478154D03*
X0306500Y0484846D03*
X0291500Y0505154D03*
X0291500Y0511846D03*
X0281500Y0511846D03*
X0281500Y0505154D03*
X0236500Y0505154D03*
X0236500Y0511846D03*
X0221500Y0484846D03*
X0221500Y0478154D03*
X0191500Y0478154D03*
X0191500Y0484846D03*
X0176500Y0505154D03*
X0176500Y0511846D03*
X0166500Y0511846D03*
X0166500Y0505154D03*
X0121500Y0505154D03*
X0121500Y0511846D03*
X0106500Y0484846D03*
X0106500Y0478154D03*
X0076500Y0478154D03*
X0076500Y0484846D03*
X0061500Y0505154D03*
X0061500Y0511846D03*
X0051500Y0511846D03*
X0051500Y0505154D03*
X0076500Y0580154D03*
X0076500Y0586846D03*
X0061500Y0607154D03*
X0061500Y0613846D03*
X0051500Y0613846D03*
X0051500Y0607154D03*
X0106500Y0586846D03*
X0106500Y0580154D03*
X0121500Y0607154D03*
X0121500Y0613846D03*
X0166500Y0613846D03*
X0166500Y0607154D03*
X0176500Y0607154D03*
X0176500Y0613846D03*
X0191500Y0586846D03*
X0191500Y0580154D03*
X0221500Y0580154D03*
X0221500Y0586846D03*
X0236500Y0607154D03*
X0236500Y0613846D03*
X0281500Y0613846D03*
X0281500Y0607154D03*
X0291500Y0607154D03*
X0291500Y0613846D03*
X0306500Y0586846D03*
X0306500Y0580154D03*
X0336500Y0580154D03*
X0336500Y0586846D03*
X0351500Y0607154D03*
X0351500Y0613846D03*
X0396500Y0613846D03*
X0396500Y0607154D03*
X0406500Y0607154D03*
X0406500Y0613846D03*
X0421500Y0586846D03*
X0421500Y0580154D03*
X0451500Y0580154D03*
X0451500Y0586846D03*
X0466500Y0607154D03*
X0466500Y0613846D03*
X0511500Y0613846D03*
X0511500Y0607154D03*
X0521500Y0607154D03*
X0521500Y0613846D03*
X0536500Y0586846D03*
X0536500Y0580154D03*
X0566500Y0580154D03*
X0566500Y0586846D03*
X0581500Y0607154D03*
X0581500Y0613846D03*
X0626500Y0613846D03*
X0626500Y0607154D03*
X0636500Y0607154D03*
X0636500Y0613846D03*
X0651500Y0586846D03*
X0651500Y0580154D03*
X0681500Y0580154D03*
X0681500Y0586846D03*
X0696500Y0607154D03*
X0696500Y0613846D03*
X0741500Y0613846D03*
X0741500Y0607154D03*
X0751500Y0607154D03*
X0751500Y0613846D03*
X0766500Y0586846D03*
X0766500Y0580154D03*
X0796500Y0580154D03*
X0796500Y0586846D03*
X0811500Y0607154D03*
X0811500Y0613846D03*
X0796500Y0682154D03*
X0796500Y0688846D03*
X0811500Y0709154D03*
X0811500Y0715846D03*
X0766500Y0688846D03*
X0766500Y0682154D03*
X0751500Y0709154D03*
X0751500Y0715846D03*
X0741500Y0715846D03*
X0741500Y0709154D03*
X0696500Y0709154D03*
X0696500Y0715846D03*
X0681500Y0688846D03*
X0681500Y0682154D03*
X0651500Y0682154D03*
X0651500Y0688846D03*
X0636500Y0709154D03*
X0636500Y0715846D03*
X0626500Y0715846D03*
X0626500Y0709154D03*
X0581500Y0709154D03*
X0581500Y0715846D03*
X0566500Y0688846D03*
X0566500Y0682154D03*
X0536500Y0682154D03*
X0536500Y0688846D03*
X0521500Y0709154D03*
X0521500Y0715846D03*
X0511500Y0715846D03*
X0511500Y0709154D03*
X0466500Y0709154D03*
X0466500Y0715846D03*
X0451500Y0688846D03*
X0451500Y0682154D03*
X0421500Y0682154D03*
X0421500Y0688846D03*
X0406500Y0709154D03*
X0406500Y0715846D03*
X0396500Y0715846D03*
X0396500Y0709154D03*
X0351500Y0709154D03*
X0351500Y0715846D03*
X0336500Y0688846D03*
X0336500Y0682154D03*
X0306500Y0682154D03*
X0306500Y0688846D03*
X0291500Y0709154D03*
X0291500Y0715846D03*
X0281500Y0715846D03*
X0281500Y0709154D03*
X0236500Y0709154D03*
X0236500Y0715846D03*
X0221500Y0688846D03*
X0221500Y0682154D03*
X0191500Y0682154D03*
X0191500Y0688846D03*
X0176500Y0709154D03*
X0176500Y0715846D03*
X0166500Y0715846D03*
X0166500Y0709154D03*
X0121500Y0709154D03*
X0121500Y0715846D03*
X0106500Y0688846D03*
X0106500Y0682154D03*
X0076500Y0682154D03*
X0076500Y0688846D03*
X0061500Y0709154D03*
X0061500Y0715846D03*
X0051500Y0715846D03*
X0051500Y0709154D03*
X0076500Y0784154D03*
X0076500Y0790846D03*
X0061500Y0811154D03*
X0061500Y0817846D03*
X0051500Y0817846D03*
X0051500Y0811154D03*
X0106500Y0790846D03*
X0106500Y0784154D03*
X0121500Y0811154D03*
X0121500Y0817846D03*
X0166500Y0817846D03*
X0166500Y0811154D03*
X0176500Y0811154D03*
X0176500Y0817846D03*
X0191500Y0790846D03*
X0191500Y0784154D03*
X0221500Y0784154D03*
X0221500Y0790846D03*
X0236500Y0811154D03*
X0236500Y0817846D03*
X0281500Y0817846D03*
X0281500Y0811154D03*
X0291500Y0811154D03*
X0291500Y0817846D03*
X0306500Y0790846D03*
X0306500Y0784154D03*
X0336500Y0784154D03*
X0336500Y0790846D03*
X0351500Y0811154D03*
X0351500Y0817846D03*
X0396500Y0817846D03*
X0396500Y0811154D03*
X0406500Y0811154D03*
X0406500Y0817846D03*
X0421500Y0790846D03*
X0421500Y0784154D03*
X0451500Y0784154D03*
X0451500Y0790846D03*
X0466500Y0811154D03*
X0466500Y0817846D03*
X0511500Y0817846D03*
X0511500Y0811154D03*
X0521500Y0811154D03*
X0521500Y0817846D03*
X0536500Y0790846D03*
X0536500Y0784154D03*
X0566500Y0784154D03*
X0566500Y0790846D03*
X0581500Y0811154D03*
X0581500Y0817846D03*
X0626500Y0817846D03*
X0626500Y0811154D03*
X0636500Y0811154D03*
X0636500Y0817846D03*
X0651500Y0790846D03*
X0651500Y0784154D03*
X0681500Y0784154D03*
X0681500Y0790846D03*
X0696500Y0811154D03*
X0696500Y0817846D03*
X0741500Y0817846D03*
X0741500Y0811154D03*
X0751500Y0811154D03*
X0751500Y0817846D03*
X0766500Y0790846D03*
X0766500Y0784154D03*
X0796500Y0784154D03*
X0796500Y0790846D03*
X0811500Y0811154D03*
X0811500Y0817846D03*
X0796500Y0886154D03*
X0796500Y0892846D03*
X0811500Y0913154D03*
X0811500Y0919846D03*
X0766500Y0892846D03*
X0766500Y0886154D03*
X0751500Y0913154D03*
X0751500Y0919846D03*
X0741500Y0919846D03*
X0741500Y0913154D03*
X0696500Y0913154D03*
X0696500Y0919846D03*
X0681500Y0892846D03*
X0681500Y0886154D03*
X0651500Y0886154D03*
X0651500Y0892846D03*
X0636500Y0913154D03*
X0636500Y0919846D03*
X0626500Y0919846D03*
X0626500Y0913154D03*
X0581500Y0913154D03*
X0581500Y0919846D03*
X0566500Y0892846D03*
X0566500Y0886154D03*
X0536500Y0886154D03*
X0536500Y0892846D03*
X0521500Y0913154D03*
X0521500Y0919846D03*
X0511500Y0919846D03*
X0511500Y0913154D03*
X0466500Y0913154D03*
X0466500Y0919846D03*
X0451500Y0892846D03*
X0451500Y0886154D03*
X0421500Y0886154D03*
X0421500Y0892846D03*
X0406500Y0913154D03*
X0406500Y0919846D03*
X0396500Y0919846D03*
X0396500Y0913154D03*
X0351500Y0913154D03*
X0351500Y0919846D03*
X0336500Y0892846D03*
X0336500Y0886154D03*
X0306500Y0886154D03*
X0306500Y0892846D03*
X0291500Y0913154D03*
X0291500Y0919846D03*
X0281500Y0919846D03*
X0281500Y0913154D03*
X0236500Y0913154D03*
X0236500Y0919846D03*
X0221500Y0892846D03*
X0221500Y0886154D03*
X0191500Y0886154D03*
X0191500Y0892846D03*
X0176500Y0913154D03*
X0176500Y0919846D03*
X0166500Y0919846D03*
X0166500Y0913154D03*
X0121500Y0913154D03*
X0121500Y0919846D03*
X0106500Y0892846D03*
X0106500Y0886154D03*
X0076500Y0886154D03*
X0076500Y0892846D03*
X0061500Y0913154D03*
X0061500Y0919846D03*
X0051500Y0919846D03*
X0051500Y0913154D03*
X0076500Y0988154D03*
X0076500Y0994846D03*
X0061500Y1015154D03*
X0061500Y1021846D03*
X0051500Y1021846D03*
X0051500Y1015154D03*
X0106500Y0994846D03*
X0106500Y0988154D03*
X0121500Y1015154D03*
X0121500Y1021846D03*
X0166500Y1021846D03*
X0166500Y1015154D03*
X0176500Y1015154D03*
X0176500Y1021846D03*
X0191500Y0994846D03*
X0191500Y0988154D03*
X0221500Y0988154D03*
X0221500Y0994846D03*
X0236500Y1015154D03*
X0236500Y1021846D03*
X0281500Y1021846D03*
X0281500Y1015154D03*
X0291500Y1015154D03*
X0291500Y1021846D03*
X0306500Y0994846D03*
X0306500Y0988154D03*
X0336500Y0988154D03*
X0336500Y0994846D03*
X0351500Y1015154D03*
X0351500Y1021846D03*
X0396500Y1021846D03*
X0396500Y1015154D03*
X0406500Y1015154D03*
X0406500Y1021846D03*
X0421500Y0994846D03*
X0421500Y0988154D03*
X0451500Y0988154D03*
X0451500Y0994846D03*
X0466500Y1015154D03*
X0466500Y1021846D03*
X0511500Y1021846D03*
X0511500Y1015154D03*
X0521500Y1015154D03*
X0521500Y1021846D03*
X0536500Y0994846D03*
X0536500Y0988154D03*
X0566500Y0988154D03*
X0566500Y0994846D03*
X0581500Y1015154D03*
X0581500Y1021846D03*
X0626500Y1021846D03*
X0626500Y1015154D03*
X0636500Y1015154D03*
X0636500Y1021846D03*
X0651500Y0994846D03*
X0651500Y0988154D03*
X0681500Y0988154D03*
X0681500Y0994846D03*
X0696500Y1015154D03*
X0696500Y1021846D03*
X0741500Y1021846D03*
X0741500Y1015154D03*
X0751500Y1015154D03*
X0751500Y1021846D03*
X0766500Y0994846D03*
X0766500Y0988154D03*
X0796500Y0988154D03*
X0796500Y0994846D03*
X0811500Y1015154D03*
X0811500Y1021846D03*
X0811500Y0103846D03*
X0811500Y0097154D03*
X0796500Y0076846D03*
X0796500Y0070154D03*
X0766500Y0070154D03*
X0766500Y0076846D03*
X0751500Y0097154D03*
X0751500Y0103846D03*
X0741500Y0103846D03*
X0741500Y0097154D03*
X0696500Y0097154D03*
X0696500Y0103846D03*
X0681500Y0076846D03*
X0681500Y0070154D03*
X0651500Y0070154D03*
X0651500Y0076846D03*
X0636500Y0097154D03*
X0636500Y0103846D03*
X0626500Y0103846D03*
X0626500Y0097154D03*
X0581500Y0097154D03*
X0581500Y0103846D03*
X0566500Y0076846D03*
X0566500Y0070154D03*
X0536500Y0070154D03*
X0536500Y0076846D03*
X0521500Y0097154D03*
X0521500Y0103846D03*
X0511500Y0103846D03*
X0511500Y0097154D03*
X0466500Y0097154D03*
X0466500Y0103846D03*
X0451500Y0076846D03*
X0451500Y0070154D03*
X0421500Y0070154D03*
X0421500Y0076846D03*
X0406500Y0097154D03*
X0406500Y0103846D03*
X0396500Y0103846D03*
X0396500Y0097154D03*
X0351500Y0097154D03*
X0351500Y0103846D03*
X0336500Y0076846D03*
X0336500Y0070154D03*
X0306500Y0070154D03*
X0306500Y0076846D03*
X0291500Y0097154D03*
X0291500Y0103846D03*
X0281500Y0103846D03*
X0281500Y0097154D03*
X0236500Y0097154D03*
X0236500Y0103846D03*
X0221500Y0076846D03*
X0221500Y0070154D03*
X0191500Y0070154D03*
X0191500Y0076846D03*
X0176500Y0097154D03*
X0176500Y0103846D03*
X0166500Y0103846D03*
X0166500Y0097154D03*
M02*
