%
M48
M72
T01C0.0150
T02C0.0400
T03C0.1300
%
T01
X6650Y6350
X6900Y6850
X7650Y5850
X8650Y6350
X8650Y4350
X10150Y4850
X9650Y6350
X11150Y6850
X11750Y6700
X12150Y6300
X11650Y5350
X13650Y5850
X10150Y7850
X9150Y8350
X8520Y8750
X8850Y9350
X9650Y9350
X7650Y8350
X8650Y14550
X7650Y16050
X6650Y16550
X6900Y17050
X7650Y18550
X8520Y18950
X8850Y19550
X9650Y19550
X9150Y18550
X10150Y18050
X11150Y17050
X11750Y16900
X12150Y16500
X11650Y15550
X10150Y15050
X9650Y16550
X8650Y16550
X13650Y16050
X18150Y16550
X18400Y17050
X19150Y16050
X20150Y16550
X21150Y16550
X21650Y15050
X20150Y14550
X22650Y17050
X23250Y16900
X23650Y16500
X23150Y15550
X25150Y16050
X21650Y18050
X20650Y18550
X20020Y18950
X20350Y19550
X21150Y19550
X19150Y18550
X20150Y24750
X21650Y25250
X21150Y26750
X20150Y26750
X19150Y26250
X18150Y26750
X18400Y27250
X19150Y28750
X20020Y29150
X20350Y29750
X21150Y29750
X20650Y28750
X21650Y28250
X22650Y27250
X23250Y27100
X23650Y26700
X23150Y25750
X25150Y26250
X29650Y26750
X29900Y27250
X30650Y26250
X31650Y26750
X32650Y26750
X33150Y25250
X31650Y24750
X34650Y25750
X35150Y26700
X34750Y27100
X34150Y27250
X33150Y28250
X32150Y28750
X31520Y29150
X31850Y29750
X32650Y29750
X30650Y28750
X31650Y34950
X33150Y35450
X32650Y36950
X31650Y36950
X30650Y36450
X29900Y37450
X29650Y36950
X30650Y38950
X31520Y39350
X31850Y39950
X32650Y39950
X32150Y38950
X33150Y38450
X34150Y37450
X34750Y37300
X35150Y36900
X34650Y35950
X36650Y36450
X41150Y36950
X41400Y37450
X42150Y36450
X43150Y36950
X44150Y36950
X44650Y38450
X43650Y38950
X43020Y39350
X43350Y39950
X44150Y39950
X42150Y38950
X45650Y37450
X46250Y37300
X46650Y36900
X46150Y35950
X44650Y35450
X43150Y34950
X43350Y29750
X43020Y29150
X43650Y28750
X44150Y29750
X44650Y28250
X45650Y27250
X46250Y27100
X46650Y26700
X46150Y25750
X44650Y25250
X44150Y26750
X43150Y26750
X42150Y26250
X41150Y26750
X41400Y27250
X42150Y28750
X43150Y24750
X43350Y19550
X43020Y18950
X43650Y18550
X44150Y19550
X44650Y18050
X45650Y17050
X46250Y16900
X46650Y16500
X46150Y15550
X44650Y15050
X44150Y16550
X43150Y16550
X42150Y16050
X41150Y16550
X41400Y17050
X42150Y18550
X43150Y14550
X43350Y9350
X43020Y8750
X43650Y8350
X44150Y9350
X44650Y7850
X45650Y6850
X46250Y6700
X46650Y6300
X46150Y5350
X44650Y4850
X44150Y6350
X43150Y6350
X42150Y5850
X41150Y6350
X41400Y6850
X42150Y8350
X43150Y4350
X48150Y5850
X52650Y6350
X52900Y6850
X53650Y5850
X54650Y6350
X55650Y6350
X56150Y4850
X54650Y4350
X57150Y6850
X57750Y6700
X58150Y6300
X57650Y5350
X59650Y5850
X56150Y7850
X55150Y8350
X54520Y8750
X54850Y9350
X55650Y9350
X53650Y8350
X54650Y14550
X53650Y16050
X52650Y16550
X52900Y17050
X53650Y18550
X54520Y18950
X54850Y19550
X55650Y19550
X55150Y18550
X56150Y18050
X57150Y17050
X57750Y16900
X58150Y16500
X57650Y15550
X56150Y15050
X55650Y16550
X54650Y16550
X59650Y16050
X64150Y16550
X64400Y17050
X65150Y16050
X66150Y16550
X67150Y16550
X67650Y15050
X68650Y17050
X69250Y16900
X69650Y16500
X69150Y15550
X71150Y16050
X67650Y18050
X66650Y18550
X66020Y18950
X66350Y19550
X67150Y19550
X65150Y18550
X66150Y14550
X66350Y9350
X66020Y8750
X66650Y8350
X67150Y9350
X67650Y7850
X68650Y6850
X69250Y6700
X69650Y6300
X69150Y5350
X67650Y4850
X67150Y6350
X66150Y6350
X65150Y5850
X64150Y6350
X64400Y6850
X65150Y8350
X66150Y4350
X71150Y5850
X75650Y6350
X75900Y6850
X76650Y5850
X77650Y6350
X77650Y4350
X79150Y4850
X78650Y6350
X80150Y6850
X80750Y6700
X81150Y6300
X80650Y5350
X82650Y5850
X79150Y7850
X78150Y8350
X77520Y8750
X77850Y9350
X78650Y9350
X76650Y8350
X77650Y14550
X76650Y16050
X75650Y16550
X75900Y17050
X76650Y18550
X77520Y18950
X77850Y19550
X78650Y19550
X78150Y18550
X79150Y18050
X80150Y17050
X80750Y16900
X81150Y16500
X80650Y15550
X79150Y15050
X78650Y16550
X77650Y16550
X82650Y16050
X79150Y25250
X78650Y26750
X80150Y27250
X80750Y27100
X81150Y26700
X80650Y25750
X82650Y26250
X79150Y28250
X78150Y28750
X77520Y29150
X77850Y29750
X78650Y29750
X76650Y28750
X75900Y27250
X75650Y26750
X76650Y26250
X77650Y26750
X77650Y24750
X71150Y26250
X69650Y26700
X69250Y27100
X68650Y27250
X67650Y28250
X66650Y28750
X66020Y29150
X66350Y29750
X67150Y29750
X65150Y28750
X64400Y27250
X64150Y26750
X65150Y26250
X66150Y26750
X67150Y26750
X67650Y25250
X66150Y24750
X69150Y25750
X66150Y34950
X65150Y36450
X64150Y36950
X64400Y37450
X65150Y38950
X66020Y39350
X66350Y39950
X67150Y39950
X66650Y38950
X67650Y38450
X68650Y37450
X69250Y37300
X69650Y36900
X69150Y35950
X67650Y35450
X67150Y36950
X66150Y36950
X71150Y36450
X75650Y36950
X75900Y37450
X76650Y36450
X77650Y36950
X78650Y36950
X79150Y38450
X78150Y38950
X77520Y39350
X77850Y39950
X78650Y39950
X76650Y38950
X80150Y37450
X80750Y37300
X81150Y36900
X80650Y35950
X79150Y35450
X77650Y34950
X82650Y36450
X79150Y45650
X78650Y47150
X80150Y47650
X80750Y47500
X81150Y47100
X80650Y46150
X82650Y46650
X79150Y48650
X78150Y49150
X77520Y49550
X77850Y50150
X78650Y50150
X76650Y49150
X75900Y47650
X75650Y47150
X76650Y46650
X77650Y47150
X77650Y45150
X71150Y46650
X69650Y47100
X69250Y47500
X68650Y47650
X67650Y48650
X66650Y49150
X66020Y49550
X66350Y50150
X67150Y50150
X65150Y49150
X64400Y47650
X64150Y47150
X65150Y46650
X66150Y47150
X67150Y47150
X67650Y45650
X66150Y45150
X69150Y46150
X66150Y55350
X65150Y56850
X64150Y57350
X64400Y57850
X65150Y59350
X66020Y59750
X66350Y60350
X67150Y60350
X66650Y59350
X67650Y58850
X68650Y57850
X69250Y57700
X69650Y57300
X69150Y56350
X67650Y55850
X67150Y57350
X66150Y57350
X71150Y56850
X75650Y57350
X75900Y57850
X76650Y56850
X77650Y57350
X78650Y57350
X79150Y58850
X78150Y59350
X77520Y59750
X77850Y60350
X78650Y60350
X76650Y59350
X80150Y57850
X80750Y57700
X81150Y57300
X80650Y56350
X79150Y55850
X77650Y55350
X82650Y56850
X77650Y65550
X79150Y66050
X78650Y67550
X80150Y68050
X80750Y67900
X81150Y67500
X80650Y66550
X82650Y67050
X79150Y69050
X78150Y69550
X77520Y69950
X77850Y70550
X78650Y70550
X76650Y69550
X75900Y68050
X75650Y67550
X76650Y67050
X77650Y67550
X71150Y67050
X69650Y67500
X69250Y67900
X68650Y68050
X67650Y69050
X66650Y69550
X66020Y69950
X66350Y70550
X67150Y70550
X65150Y69550
X64400Y68050
X64150Y67550
X65150Y67050
X66150Y67550
X67150Y67550
X67650Y66050
X66150Y65550
X69150Y66550
X66150Y75750
X65150Y77250
X64150Y77750
X64400Y78250
X65150Y79750
X66020Y80150
X66350Y80750
X67150Y80750
X66650Y79750
X67650Y79250
X68650Y78250
X69250Y78100
X69650Y77700
X69150Y76750
X67650Y76250
X67150Y77750
X66150Y77750
X71150Y77250
X75650Y77750
X75900Y78250
X76650Y77250
X77650Y77750
X78650Y77750
X79150Y79250
X78150Y79750
X77520Y80150
X77850Y80750
X78650Y80750
X76650Y79750
X80150Y78250
X80750Y78100
X81150Y77700
X80650Y76750
X79150Y76250
X77650Y75750
X82650Y77250
X77650Y85950
X79150Y86450
X78650Y87950
X80150Y88450
X80750Y88300
X81150Y87900
X80650Y86950
X82650Y87450
X79150Y89450
X78150Y89950
X77520Y90350
X77850Y90950
X78650Y90950
X76650Y89950
X75900Y88450
X75650Y87950
X76650Y87450
X77650Y87950
X71150Y87450
X69650Y87900
X69250Y88300
X68650Y88450
X67650Y89450
X66650Y89950
X66020Y90350
X66350Y90950
X67150Y90950
X65150Y89950
X64400Y88450
X64150Y87950
X65150Y87450
X66150Y87950
X67150Y87950
X67650Y86450
X66150Y85950
X69150Y86950
X66150Y96150
X65150Y97650
X64150Y98150
X64400Y98650
X65150Y100150
X66020Y100550
X66350Y101150
X67150Y101150
X66650Y100150
X67650Y99650
X68650Y98650
X69250Y98500
X69650Y98100
X69150Y97150
X67650Y96650
X67150Y98150
X66150Y98150
X71150Y97650
X75650Y98150
X75900Y98650
X76650Y97650
X77650Y98150
X78650Y98150
X79150Y99650
X78150Y100150
X77520Y100550
X77850Y101150
X78650Y101150
X76650Y100150
X80150Y98650
X80750Y98500
X81150Y98100
X80650Y97150
X79150Y96650
X77650Y96150
X82650Y97650
X59650Y97650
X58150Y98100
X57750Y98500
X57150Y98650
X56150Y99650
X55150Y100150
X54520Y100550
X54850Y101150
X55650Y101150
X53650Y100150
X52900Y98650
X52650Y98150
X53650Y97650
X54650Y98150
X55650Y98150
X56150Y96650
X54650Y96150
X57650Y97150
X55650Y90950
X54850Y90950
X54520Y90350
X55150Y89950
X56150Y89450
X57150Y88450
X57750Y88300
X58150Y87900
X57650Y86950
X56150Y86450
X55650Y87950
X54650Y87950
X53650Y87450
X52650Y87950
X52900Y88450
X53650Y89950
X54650Y85950
X54850Y80750
X54520Y80150
X55150Y79750
X55650Y80750
X56150Y79250
X57150Y78250
X57750Y78100
X58150Y77700
X57650Y76750
X56150Y76250
X55650Y77750
X54650Y77750
X53650Y77250
X52650Y77750
X52900Y78250
X53650Y79750
X54650Y75750
X54850Y70550
X54520Y69950
X55150Y69550
X55650Y70550
X56150Y69050
X57150Y68050
X57750Y67900
X58150Y67500
X57650Y66550
X56150Y66050
X55650Y67550
X54650Y67550
X53650Y67050
X52650Y67550
X52900Y68050
X53650Y69550
X54650Y65550
X54850Y60350
X54520Y59750
X55150Y59350
X55650Y60350
X56150Y58850
X57150Y57850
X57750Y57700
X58150Y57300
X57650Y56350
X56150Y55850
X55650Y57350
X54650Y57350
X53650Y56850
X52650Y57350
X52900Y57850
X53650Y59350
X54650Y55350
X54850Y50150
X54520Y49550
X55150Y49150
X55650Y50150
X56150Y48650
X57150Y47650
X57750Y47500
X58150Y47100
X57650Y46150
X56150Y45650
X55650Y47150
X54650Y47150
X53650Y46650
X52650Y47150
X52900Y47650
X53650Y49150
X54650Y45150
X54850Y39950
X54520Y39350
X55150Y38950
X55650Y39950
X56150Y38450
X57150Y37450
X57750Y37300
X58150Y36900
X57650Y35950
X56150Y35450
X55650Y36950
X54650Y36950
X53650Y36450
X52650Y36950
X52900Y37450
X53650Y38950
X54650Y34950
X54850Y29750
X54520Y29150
X55150Y28750
X55650Y29750
X56150Y28250
X57150Y27250
X57750Y27100
X58150Y26700
X57650Y25750
X56150Y25250
X55650Y26750
X54650Y26750
X53650Y26250
X52650Y26750
X52900Y27250
X53650Y28750
X54650Y24750
X59650Y26250
X59650Y36450
X59650Y46650
X59650Y56850
X59650Y67050
X59650Y77250
X59650Y87450
X48150Y87450
X46650Y87900
X46250Y88300
X45650Y88450
X44650Y89450
X43650Y89950
X43020Y90350
X43350Y90950
X44150Y90950
X42150Y89950
X41400Y88450
X41150Y87950
X42150Y87450
X43150Y87950
X44150Y87950
X44650Y86450
X46150Y86950
X43150Y85950
X43350Y80750
X43020Y80150
X43650Y79750
X44150Y80750
X44650Y79250
X45650Y78250
X46250Y78100
X46650Y77700
X46150Y76750
X44650Y76250
X44150Y77750
X43150Y77750
X42150Y77250
X41150Y77750
X41400Y78250
X42150Y79750
X43150Y75750
X43350Y70550
X43020Y69950
X43650Y69550
X44150Y70550
X44650Y69050
X45650Y68050
X46250Y67900
X46650Y67500
X46150Y66550
X44650Y66050
X44150Y67550
X43150Y67550
X42150Y67050
X41150Y67550
X41400Y68050
X42150Y69550
X43150Y65550
X43350Y60350
X43020Y59750
X43650Y59350
X44150Y60350
X44650Y58850
X45650Y57850
X46250Y57700
X46650Y57300
X46150Y56350
X44650Y55850
X44150Y57350
X43150Y57350
X42150Y56850
X41150Y57350
X41400Y57850
X42150Y59350
X43150Y55350
X43350Y50150
X43020Y49550
X43650Y49150
X44150Y50150
X44650Y48650
X45650Y47650
X46250Y47500
X46650Y47100
X46150Y46150
X44650Y45650
X44150Y47150
X43150Y47150
X42150Y46650
X41150Y47150
X41400Y47650
X42150Y49150
X43150Y45150
X48150Y46650
X48150Y56850
X48150Y67050
X48150Y77250
X36650Y77250
X35150Y77700
X34750Y78100
X34150Y78250
X34650Y76750
X33150Y76250
X31650Y75750
X30650Y77250
X31650Y77750
X32650Y77750
X33150Y79250
X32150Y79750
X31520Y80150
X31850Y80750
X32650Y80750
X30650Y79750
X29900Y78250
X29650Y77750
X25150Y77250
X23650Y77700
X23250Y78100
X22650Y78250
X21650Y79250
X20650Y79750
X20020Y80150
X20350Y80750
X21150Y80750
X19150Y79750
X18400Y78250
X18150Y77750
X19150Y77250
X20150Y77750
X21150Y77750
X21650Y76250
X20150Y75750
X23150Y76750
X21150Y70550
X20350Y70550
X20020Y69950
X20650Y69550
X21650Y69050
X22650Y68050
X23250Y67900
X23650Y67500
X23150Y66550
X21650Y66050
X20150Y65550
X19150Y67050
X18150Y67550
X18400Y68050
X19150Y69550
X20150Y67550
X21150Y67550
X25150Y67050
X29650Y67550
X29900Y68050
X30650Y67050
X31650Y67550
X32650Y67550
X33150Y66050
X31650Y65550
X34650Y66550
X35150Y67500
X34750Y67900
X34150Y68050
X33150Y69050
X32150Y69550
X31520Y69950
X31850Y70550
X32650Y70550
X30650Y69550
X36650Y67050
X32650Y60350
X31850Y60350
X31520Y59750
X32150Y59350
X33150Y58850
X32650Y57350
X31650Y57350
X30650Y56850
X29900Y57850
X29650Y57350
X30650Y59350
X34150Y57850
X34750Y57700
X35150Y57300
X34650Y56350
X33150Y55850
X31650Y55350
X31850Y50150
X31520Y49550
X32150Y49150
X32650Y50150
X33150Y48650
X34150Y47650
X34750Y47500
X35150Y47100
X34650Y46150
X33150Y45650
X32650Y47150
X31650Y47150
X30650Y46650
X29900Y47650
X29650Y47150
X30650Y49150
X31650Y45150
X36650Y46650
X36650Y56850
X25150Y56850
X23650Y57300
X23250Y57700
X22650Y57850
X21650Y58850
X20650Y59350
X20020Y59750
X20350Y60350
X21150Y60350
X19150Y59350
X18400Y57850
X18150Y57350
X19150Y56850
X20150Y57350
X21150Y57350
X21650Y55850
X20150Y55350
X23150Y56350
X21150Y50150
X20350Y50150
X20020Y49550
X20650Y49150
X21650Y48650
X22650Y47650
X23250Y47500
X23650Y47100
X23150Y46150
X21650Y45650
X21150Y47150
X20150Y47150
X20150Y45150
X19150Y46650
X18150Y47150
X18400Y47650
X19150Y49150
X13650Y46650
X12150Y47100
X11750Y47500
X11150Y47650
X10150Y48650
X9150Y49150
X8520Y49550
X8850Y50150
X9650Y50150
X7650Y49150
X6900Y47650
X6650Y47150
X7650Y46650
X8650Y47150
X8650Y45150
X10150Y45650
X9650Y47150
X11650Y46150
X9650Y39950
X8850Y39950
X8520Y39350
X9150Y38950
X10150Y38450
X11150Y37450
X11750Y37300
X12150Y36900
X11650Y35950
X10150Y35450
X9650Y36950
X8650Y36950
X7650Y36450
X6650Y36950
X6900Y37450
X7650Y38950
X8650Y34950
X8850Y29750
X8520Y29150
X9150Y28750
X9650Y29750
X10150Y28250
X11150Y27250
X11750Y27100
X12150Y26700
X11650Y25750
X10150Y25250
X9650Y26750
X8650Y26750
X7650Y26250
X6650Y26750
X6900Y27250
X7650Y28750
X8650Y24750
X13650Y26250
X20150Y34950
X21650Y35450
X21150Y36950
X20150Y36950
X21650Y38450
X20650Y38950
X20020Y39350
X20350Y39950
X21150Y39950
X19150Y38950
X18400Y37450
X18150Y36950
X19150Y36450
X22650Y37450
X23250Y37300
X23650Y36900
X23150Y35950
X25150Y36450
X25150Y46650
X13650Y36450
X8650Y55350
X7650Y56850
X6650Y57350
X6900Y57850
X7650Y59350
X8520Y59750
X8850Y60350
X9650Y60350
X9150Y59350
X10150Y58850
X11150Y57850
X11750Y57700
X12150Y57300
X11650Y56350
X10150Y55850
X9650Y57350
X8650Y57350
X13650Y56850
X8650Y65550
X10150Y66050
X9650Y67550
X11150Y68050
X11750Y67900
X12150Y67500
X11650Y66550
X13650Y67050
X10150Y69050
X9150Y69550
X8520Y69950
X8850Y70550
X9650Y70550
X7650Y69550
X6900Y68050
X6650Y67550
X7650Y67050
X8650Y67550
X8650Y75750
X7650Y77250
X6650Y77750
X6900Y78250
X7650Y79750
X8520Y80150
X8850Y80750
X9650Y80750
X9150Y79750
X10150Y79250
X11150Y78250
X11750Y78100
X12150Y77700
X11650Y76750
X10150Y76250
X9650Y77750
X8650Y77750
X13650Y77250
X8650Y85950
X10150Y86450
X9650Y87950
X11150Y88450
X11750Y88300
X12150Y87900
X11650Y86950
X13650Y87450
X10150Y89450
X9150Y89950
X8520Y90350
X8850Y90950
X9650Y90950
X7650Y89950
X6900Y88450
X6650Y87950
X7650Y87450
X8650Y87950
X8650Y96150
X7650Y97650
X6650Y98150
X6900Y98650
X7650Y100150
X8520Y100550
X8850Y101150
X9650Y101150
X9150Y100150
X10150Y99650
X11150Y98650
X11750Y98500
X12150Y98100
X11650Y97150
X10150Y96650
X9650Y98150
X8650Y98150
X13650Y97650
X18150Y98150
X18400Y98650
X19150Y97650
X20150Y98150
X21150Y98150
X21650Y99650
X20650Y100150
X20020Y100550
X20350Y101150
X21150Y101150
X19150Y100150
X22650Y98650
X23250Y98500
X23650Y98100
X23150Y97150
X21650Y96650
X20150Y96150
X20350Y90950
X20020Y90350
X20650Y89950
X21150Y90950
X21650Y89450
X22650Y88450
X23250Y88300
X23650Y87900
X23150Y86950
X21650Y86450
X20150Y85950
X19150Y87450
X18150Y87950
X18400Y88450
X19150Y89950
X20150Y87950
X21150Y87950
X25150Y87450
X29650Y87950
X29900Y88450
X30650Y87450
X31650Y87950
X32650Y87950
X33150Y86450
X31650Y85950
X34650Y86950
X35150Y87900
X34750Y88300
X34150Y88450
X33150Y89450
X32150Y89950
X31520Y90350
X31850Y90950
X32650Y90950
X30650Y89950
X31650Y96150
X33150Y96650
X32650Y98150
X31650Y98150
X30650Y97650
X29900Y98650
X29650Y98150
X30650Y100150
X31520Y100550
X31850Y101150
X32650Y101150
X32150Y100150
X33150Y99650
X34150Y98650
X34750Y98500
X35150Y98100
X34650Y97150
X36650Y97650
X41150Y98150
X41400Y98650
X42150Y97650
X43150Y98150
X44150Y98150
X44650Y99650
X43650Y100150
X43020Y100550
X43350Y101150
X44150Y101150
X42150Y100150
X45650Y98650
X46250Y98500
X46650Y98100
X46150Y97150
X44650Y96650
X43150Y96150
X48150Y97650
X36650Y87450
X25150Y97650
X48150Y36450
X48150Y26250
X48150Y16050
X36650Y16050
X35150Y16500
X34750Y16900
X34150Y17050
X34650Y15550
X33150Y15050
X31650Y14550
X30650Y16050
X31650Y16550
X32650Y16550
X33150Y18050
X32150Y18550
X31520Y18950
X31850Y19550
X32650Y19550
X30650Y18550
X29900Y17050
X29650Y16550
X31850Y9350
X31520Y8750
X32150Y8350
X32650Y9350
X33150Y7850
X34150Y6850
X34750Y6700
X35150Y6300
X34650Y5350
X33150Y4850
X32650Y6350
X31650Y6350
X30650Y5850
X29900Y6850
X29650Y6350
X30650Y8350
X31650Y4350
X36650Y5850
X25150Y5850
X23650Y6300
X23250Y6700
X22650Y6850
X21650Y7850
X20650Y8350
X20020Y8750
X20350Y9350
X21150Y9350
X19150Y8350
X18400Y6850
X18150Y6350
X19150Y5850
X20150Y6350
X21150Y6350
X21650Y4850
X20150Y4350
X23150Y5350
X36650Y26250
T02
X6150Y3350
X7150Y3350
X8150Y3350
X9150Y3350
X10150Y3350
X11150Y3350
X12150Y3350
X17650Y3350
X18650Y3350
X19650Y3350
X20650Y3350
X21650Y3350
X22650Y3350
X23650Y3350
X29150Y3350
X30150Y3350
X31150Y3350
X32150Y3350
X33150Y3350
X34150Y3350
X35150Y3350
X40650Y3350
X41650Y3350
X42650Y3350
X43650Y3350
X44650Y3350
X45650Y3350
X46650Y3350
X52150Y3350
X53150Y3350
X54150Y3350
X55150Y3350
X56150Y3350
X57150Y3350
X58150Y3350
X63650Y3350
X64650Y3350
X65650Y3350
X66650Y3350
X67650Y3350
X68650Y3350
X69650Y3350
X75150Y3350
X76150Y3350
X77150Y3350
X78150Y3350
X79150Y3350
X80150Y3350
X81150Y3350
X81150Y13550
X80150Y13550
X79150Y13550
X78150Y13550
X77150Y13550
X76150Y13550
X75150Y13550
X69650Y13550
X68650Y13550
X67650Y13550
X66650Y13550
X65650Y13550
X64650Y13550
X63650Y13550
X58150Y13550
X57150Y13550
X56150Y13550
X55150Y13550
X54150Y13550
X53150Y13550
X52150Y13550
X46650Y13550
X45650Y13550
X44650Y13550
X43650Y13550
X42650Y13550
X41650Y13550
X40650Y13550
X35150Y13550
X34150Y13550
X33150Y13550
X32150Y13550
X31150Y13550
X30150Y13550
X29150Y13550
X23650Y13550
X22650Y13550
X21650Y13550
X20650Y13550
X19650Y13550
X18650Y13550
X17650Y13550
X12150Y13550
X11150Y13550
X10150Y13550
X9150Y13550
X8150Y13550
X7150Y13550
X6150Y13550
X6150Y23750
X7150Y23750
X8150Y23750
X9150Y23750
X10150Y23750
X11150Y23750
X12150Y23750
X17650Y23750
X18650Y23750
X19650Y23750
X20650Y23750
X21650Y23750
X22650Y23750
X23650Y23750
X29150Y23750
X30150Y23750
X31150Y23750
X32150Y23750
X33150Y23750
X34150Y23750
X35150Y23750
X40650Y23750
X41650Y23750
X42650Y23750
X43650Y23750
X44650Y23750
X45650Y23750
X46650Y23750
X52150Y23750
X53150Y23750
X54150Y23750
X55150Y23750
X56150Y23750
X57150Y23750
X58150Y23750
X63650Y23750
X64650Y23750
X65650Y23750
X66650Y23750
X67650Y23750
X68650Y23750
X69650Y23750
X75150Y23750
X76150Y23750
X77150Y23750
X78150Y23750
X79150Y23750
X80150Y23750
X81150Y23750
X81150Y33950
X80150Y33950
X79150Y33950
X78150Y33950
X77150Y33950
X76150Y33950
X75150Y33950
X69650Y33950
X68650Y33950
X67650Y33950
X66650Y33950
X65650Y33950
X64650Y33950
X63650Y33950
X58150Y33950
X57150Y33950
X56150Y33950
X55150Y33950
X54150Y33950
X53150Y33950
X52150Y33950
X46650Y33950
X45650Y33950
X44650Y33950
X43650Y33950
X42650Y33950
X41650Y33950
X40650Y33950
X35150Y33950
X34150Y33950
X33150Y33950
X32150Y33950
X31150Y33950
X30150Y33950
X29150Y33950
X23650Y33950
X22650Y33950
X21650Y33950
X20650Y33950
X19650Y33950
X18650Y33950
X17650Y33950
X12150Y33950
X11150Y33950
X10150Y33950
X9150Y33950
X8150Y33950
X7150Y33950
X6150Y33950
X6150Y44150
X7150Y44150
X8150Y44150
X9150Y44150
X10150Y44150
X11150Y44150
X12150Y44150
X17650Y44150
X18650Y44150
X19650Y44150
X20650Y44150
X21650Y44150
X22650Y44150
X23650Y44150
X29150Y44150
X30150Y44150
X31150Y44150
X32150Y44150
X33150Y44150
X34150Y44150
X35150Y44150
X40650Y44150
X41650Y44150
X42650Y44150
X43650Y44150
X44650Y44150
X45650Y44150
X46650Y44150
X52150Y44150
X53150Y44150
X54150Y44150
X55150Y44150
X56150Y44150
X57150Y44150
X58150Y44150
X63650Y44150
X64650Y44150
X65650Y44150
X66650Y44150
X67650Y44150
X68650Y44150
X69650Y44150
X75150Y44150
X76150Y44150
X77150Y44150
X78150Y44150
X79150Y44150
X80150Y44150
X81150Y44150
X81150Y54350
X80150Y54350
X79150Y54350
X78150Y54350
X77150Y54350
X76150Y54350
X75150Y54350
X69650Y54350
X68650Y54350
X67650Y54350
X66650Y54350
X65650Y54350
X64650Y54350
X63650Y54350
X58150Y54350
X57150Y54350
X56150Y54350
X55150Y54350
X54150Y54350
X53150Y54350
X52150Y54350
X46650Y54350
X45650Y54350
X44650Y54350
X43650Y54350
X42650Y54350
X41650Y54350
X40650Y54350
X35150Y54350
X34150Y54350
X33150Y54350
X32150Y54350
X31150Y54350
X30150Y54350
X29150Y54350
X23650Y54350
X22650Y54350
X21650Y54350
X20650Y54350
X19650Y54350
X18650Y54350
X17650Y54350
X12150Y54350
X11150Y54350
X10150Y54350
X9150Y54350
X8150Y54350
X7150Y54350
X6150Y54350
X6150Y64550
X7150Y64550
X8150Y64550
X9150Y64550
X10150Y64550
X11150Y64550
X12150Y64550
X17650Y64550
X18650Y64550
X19650Y64550
X20650Y64550
X21650Y64550
X22650Y64550
X23650Y64550
X29150Y64550
X30150Y64550
X31150Y64550
X32150Y64550
X33150Y64550
X34150Y64550
X35150Y64550
X40650Y64550
X41650Y64550
X42650Y64550
X43650Y64550
X44650Y64550
X45650Y64550
X46650Y64550
X52150Y64550
X53150Y64550
X54150Y64550
X55150Y64550
X56150Y64550
X57150Y64550
X58150Y64550
X63650Y64550
X64650Y64550
X65650Y64550
X66650Y64550
X67650Y64550
X68650Y64550
X69650Y64550
X75150Y64550
X76150Y64550
X77150Y64550
X78150Y64550
X79150Y64550
X80150Y64550
X81150Y64550
X81150Y74750
X80150Y74750
X79150Y74750
X78150Y74750
X77150Y74750
X76150Y74750
X75150Y74750
X69650Y74750
X68650Y74750
X67650Y74750
X66650Y74750
X65650Y74750
X64650Y74750
X63650Y74750
X58150Y74750
X57150Y74750
X56150Y74750
X55150Y74750
X54150Y74750
X53150Y74750
X52150Y74750
X46650Y74750
X45650Y74750
X44650Y74750
X43650Y74750
X42650Y74750
X41650Y74750
X40650Y74750
X35150Y74750
X34150Y74750
X33150Y74750
X32150Y74750
X31150Y74750
X30150Y74750
X29150Y74750
X23650Y74750
X22650Y74750
X21650Y74750
X20650Y74750
X19650Y74750
X18650Y74750
X17650Y74750
X12150Y74750
X11150Y74750
X10150Y74750
X9150Y74750
X8150Y74750
X7150Y74750
X6150Y74750
X6150Y84950
X7150Y84950
X8150Y84950
X9150Y84950
X10150Y84950
X11150Y84950
X12150Y84950
X17650Y84950
X18650Y84950
X19650Y84950
X20650Y84950
X21650Y84950
X22650Y84950
X23650Y84950
X29150Y84950
X30150Y84950
X31150Y84950
X32150Y84950
X33150Y84950
X34150Y84950
X35150Y84950
X40650Y84950
X41650Y84950
X42650Y84950
X43650Y84950
X44650Y84950
X45650Y84950
X46650Y84950
X52150Y84950
X53150Y84950
X54150Y84950
X55150Y84950
X56150Y84950
X57150Y84950
X58150Y84950
X63650Y84950
X64650Y84950
X65650Y84950
X66650Y84950
X67650Y84950
X68650Y84950
X69650Y84950
X75150Y84950
X76150Y84950
X77150Y84950
X78150Y84950
X79150Y84950
X80150Y84950
X81150Y84950
X81150Y95150
X80150Y95150
X79150Y95150
X78150Y95150
X77150Y95150
X76150Y95150
X75150Y95150
X69650Y95150
X68650Y95150
X67650Y95150
X66650Y95150
X65650Y95150
X64650Y95150
X63650Y95150
X58150Y95150
X57150Y95150
X56150Y95150
X55150Y95150
X54150Y95150
X53150Y95150
X52150Y95150
X46650Y95150
X45650Y95150
X44650Y95150
X43650Y95150
X42650Y95150
X41650Y95150
X40650Y95150
X35150Y95150
X34150Y95150
X33150Y95150
X32150Y95150
X31150Y95150
X30150Y95150
X29150Y95150
X23650Y95150
X22650Y95150
X21650Y95150
X20650Y95150
X19650Y95150
X18650Y95150
X17650Y95150
X12150Y95150
X11150Y95150
X10150Y95150
X9150Y95150
X8150Y95150
X7150Y95150
X6150Y95150
T03
X5150Y93450
X5150Y83250
X13150Y83250
X16650Y83250
X24650Y83250
X28150Y83250
X36150Y83250
X39650Y83250
X47650Y83250
X51150Y83250
X59150Y83250
X62650Y83250
X70650Y83250
X74150Y83250
X74150Y93450
X70650Y93450
X62650Y93450
X59150Y93450
X51150Y93450
X47650Y93450
X39650Y93450
X36150Y93450
X28150Y93450
X24650Y93450
X16650Y93450
X13150Y93450
X13150Y103650
X16650Y103650
X24650Y103650
X28150Y103650
X36150Y103650
X39650Y103650
X47650Y103650
X51150Y103650
X59150Y103650
X62650Y103650
X70650Y103650
X74150Y103650
X82150Y103650
X82150Y93450
X82150Y83250
X82150Y73050
X82150Y62850
X74150Y62850
X70650Y62850
X62650Y62850
X59150Y62850
X51150Y62850
X47650Y62850
X39650Y62850
X36150Y62850
X28150Y62850
X24650Y62850
X16650Y62850
X13150Y62850
X13150Y73050
X16650Y73050
X24650Y73050
X28150Y73050
X36150Y73050
X39650Y73050
X47650Y73050
X51150Y73050
X59150Y73050
X62650Y73050
X70650Y73050
X74150Y73050
X74150Y52650
X70650Y52650
X62650Y52650
X59150Y52650
X51150Y52650
X47650Y52650
X39650Y52650
X36150Y52650
X28150Y52650
X24650Y52650
X16650Y52650
X13150Y52650
X13150Y42450
X16650Y42450
X24650Y42450
X28150Y42450
X36150Y42450
X39650Y42450
X47650Y42450
X51150Y42450
X59150Y42450
X62650Y42450
X70650Y42450
X74150Y42450
X74150Y32250
X70650Y32250
X62650Y32250
X59150Y32250
X51150Y32250
X47650Y32250
X39650Y32250
X36150Y32250
X28150Y32250
X24650Y32250
X16650Y32250
X13150Y32250
X5150Y32250
X5150Y42450
X5150Y52650
X5150Y62850
X5150Y73050
X5150Y103650
X5150Y22050
X5150Y11850
X13150Y11850
X16650Y11850
X24650Y11850
X28150Y11850
X36150Y11850
X39650Y11850
X47650Y11850
X51150Y11850
X59150Y11850
X62650Y11850
X70650Y11850
X74150Y11850
X74150Y22050
X70650Y22050
X62650Y22050
X59150Y22050
X51150Y22050
X47650Y22050
X39650Y22050
X36150Y22050
X28150Y22050
X24650Y22050
X16650Y22050
X13150Y22050
X82150Y22050
X82150Y11850
X82150Y32250
X82150Y42450
X82150Y52650
M30
