G75*
%MOIN*%
%OFA0B0*%
%FSLAX25Y25*%
%IPPOS*%
%LPD*%
%AMOC8*
5,1,8,0,0,1.08239X$1,22.5*
%
%ADD10C,0.13800*%
%ADD11C,0.03300*%
%ADD12C,0.08200*%
%ADD13C,0.04737*%
%ADD14C,0.05000*%
%ADD15C,0.06706*%
D10*
X0051500Y0118500D03*
X0051500Y0220500D03*
X0131500Y0220500D03*
X0166500Y0220500D03*
X0246500Y0220500D03*
X0281500Y0220500D03*
X0361500Y0220500D03*
X0396500Y0220500D03*
X0476500Y0220500D03*
X0511500Y0220500D03*
X0591500Y0220500D03*
X0626500Y0220500D03*
X0706500Y0220500D03*
X0741500Y0220500D03*
X0741500Y0118500D03*
X0706500Y0118500D03*
X0626500Y0118500D03*
X0591500Y0118500D03*
X0511500Y0118500D03*
X0476500Y0118500D03*
X0396500Y0118500D03*
X0361500Y0118500D03*
X0281500Y0118500D03*
X0246500Y0118500D03*
X0166500Y0118500D03*
X0131500Y0118500D03*
X0131500Y0322500D03*
X0166500Y0322500D03*
X0246500Y0322500D03*
X0281500Y0322500D03*
X0361500Y0322500D03*
X0396500Y0322500D03*
X0476500Y0322500D03*
X0511500Y0322500D03*
X0591500Y0322500D03*
X0626500Y0322500D03*
X0706500Y0322500D03*
X0741500Y0322500D03*
X0741500Y0424500D03*
X0706500Y0424500D03*
X0626500Y0424500D03*
X0591500Y0424500D03*
X0511500Y0424500D03*
X0476500Y0424500D03*
X0396500Y0424500D03*
X0361500Y0424500D03*
X0281500Y0424500D03*
X0246500Y0424500D03*
X0166500Y0424500D03*
X0131500Y0424500D03*
X0131500Y0526500D03*
X0166500Y0526500D03*
X0246500Y0526500D03*
X0281500Y0526500D03*
X0361500Y0526500D03*
X0396500Y0526500D03*
X0476500Y0526500D03*
X0511500Y0526500D03*
X0591500Y0526500D03*
X0626500Y0526500D03*
X0706500Y0526500D03*
X0741500Y0526500D03*
X0821500Y0526500D03*
X0821500Y0424500D03*
X0821500Y0322500D03*
X0821500Y0220500D03*
X0821500Y0118500D03*
X0821500Y0628500D03*
X0821500Y0730500D03*
X0741500Y0730500D03*
X0706500Y0730500D03*
X0626500Y0730500D03*
X0591500Y0730500D03*
X0511500Y0730500D03*
X0476500Y0730500D03*
X0396500Y0730500D03*
X0361500Y0730500D03*
X0281500Y0730500D03*
X0246500Y0730500D03*
X0166500Y0730500D03*
X0131500Y0730500D03*
X0131500Y0628500D03*
X0166500Y0628500D03*
X0246500Y0628500D03*
X0281500Y0628500D03*
X0361500Y0628500D03*
X0396500Y0628500D03*
X0476500Y0628500D03*
X0511500Y0628500D03*
X0591500Y0628500D03*
X0626500Y0628500D03*
X0706500Y0628500D03*
X0741500Y0628500D03*
X0741500Y0832500D03*
X0706500Y0832500D03*
X0626500Y0832500D03*
X0591500Y0832500D03*
X0511500Y0832500D03*
X0476500Y0832500D03*
X0396500Y0832500D03*
X0361500Y0832500D03*
X0281500Y0832500D03*
X0246500Y0832500D03*
X0166500Y0832500D03*
X0131500Y0832500D03*
X0131500Y0934500D03*
X0166500Y0934500D03*
X0246500Y0934500D03*
X0281500Y0934500D03*
X0361500Y0934500D03*
X0396500Y0934500D03*
X0476500Y0934500D03*
X0511500Y0934500D03*
X0591500Y0934500D03*
X0626500Y0934500D03*
X0706500Y0934500D03*
X0741500Y0934500D03*
X0821500Y0934500D03*
X0821500Y0832500D03*
X0821500Y1036500D03*
X0741500Y1036500D03*
X0706500Y1036500D03*
X0626500Y1036500D03*
X0591500Y1036500D03*
X0511500Y1036500D03*
X0476500Y1036500D03*
X0396500Y1036500D03*
X0361500Y1036500D03*
X0281500Y1036500D03*
X0246500Y1036500D03*
X0166500Y1036500D03*
X0131500Y1036500D03*
X0051500Y1036500D03*
X0051500Y0934500D03*
X0051500Y0832500D03*
X0051500Y0730500D03*
X0051500Y0628500D03*
X0051500Y0526500D03*
X0051500Y0424500D03*
X0051500Y0322500D03*
D11*
X0046500Y0033500D03*
X0046500Y0135500D03*
X0136500Y0103500D03*
X0161500Y0135500D03*
X0136500Y0205500D03*
X0161500Y0237500D03*
X0136500Y0307500D03*
X0161500Y0339500D03*
X0136500Y0409500D03*
X0161500Y0441500D03*
X0136500Y0511500D03*
X0161500Y0543500D03*
X0136500Y0613500D03*
X0161500Y0645500D03*
X0136500Y0715500D03*
X0161500Y0747500D03*
X0136500Y0817500D03*
X0161500Y0849500D03*
X0136500Y0919500D03*
X0161500Y0951500D03*
X0136500Y1021500D03*
X0046500Y0951500D03*
X0046500Y0849500D03*
X0046500Y0747500D03*
X0046500Y0645500D03*
X0046500Y0543500D03*
X0046500Y0441500D03*
X0046500Y0339500D03*
X0046500Y0237500D03*
X0161500Y0033500D03*
X0251500Y0103500D03*
X0276500Y0135500D03*
X0251500Y0205500D03*
X0276500Y0237500D03*
X0251500Y0307500D03*
X0276500Y0339500D03*
X0251500Y0409500D03*
X0276500Y0441500D03*
X0251500Y0511500D03*
X0276500Y0543500D03*
X0251500Y0613500D03*
X0276500Y0645500D03*
X0251500Y0715500D03*
X0276500Y0747500D03*
X0251500Y0817500D03*
X0276500Y0849500D03*
X0251500Y0919500D03*
X0276500Y0951500D03*
X0251500Y1021500D03*
X0366500Y1021500D03*
X0391500Y0951500D03*
X0366500Y0919500D03*
X0391500Y0849500D03*
X0366500Y0817500D03*
X0391500Y0747500D03*
X0366500Y0715500D03*
X0391500Y0645500D03*
X0366500Y0613500D03*
X0391500Y0543500D03*
X0366500Y0511500D03*
X0391500Y0441500D03*
X0366500Y0409500D03*
X0391500Y0339500D03*
X0366500Y0307500D03*
X0391500Y0237500D03*
X0366500Y0205500D03*
X0391500Y0135500D03*
X0366500Y0103500D03*
X0391500Y0033500D03*
X0481500Y0103500D03*
X0506500Y0135500D03*
X0481500Y0205500D03*
X0506500Y0237500D03*
X0481500Y0307500D03*
X0506500Y0339500D03*
X0481500Y0409500D03*
X0506500Y0441500D03*
X0481500Y0511500D03*
X0506500Y0543500D03*
X0481500Y0613500D03*
X0506500Y0645500D03*
X0481500Y0715500D03*
X0506500Y0747500D03*
X0481500Y0817500D03*
X0506500Y0849500D03*
X0481500Y0919500D03*
X0506500Y0951500D03*
X0481500Y1021500D03*
X0596500Y1021500D03*
X0621500Y0951500D03*
X0596500Y0919500D03*
X0621500Y0849500D03*
X0596500Y0817500D03*
X0621500Y0747500D03*
X0596500Y0715500D03*
X0621500Y0645500D03*
X0596500Y0613500D03*
X0621500Y0543500D03*
X0596500Y0511500D03*
X0621500Y0441500D03*
X0596500Y0409500D03*
X0621500Y0339500D03*
X0596500Y0307500D03*
X0621500Y0237500D03*
X0596500Y0205500D03*
X0621500Y0135500D03*
X0596500Y0103500D03*
X0621500Y0033500D03*
X0711500Y0103500D03*
X0736500Y0135500D03*
X0711500Y0205500D03*
X0736500Y0237500D03*
X0711500Y0307500D03*
X0736500Y0339500D03*
X0711500Y0409500D03*
X0736500Y0441500D03*
X0711500Y0511500D03*
X0736500Y0543500D03*
X0711500Y0613500D03*
X0736500Y0645500D03*
X0711500Y0715500D03*
X0736500Y0747500D03*
X0711500Y0817500D03*
X0736500Y0849500D03*
X0711500Y0919500D03*
X0736500Y0951500D03*
X0711500Y1021500D03*
X0826500Y1021500D03*
X0826500Y0919500D03*
X0826500Y0817500D03*
X0826500Y0715500D03*
X0826500Y0613500D03*
X0826500Y0511500D03*
X0826500Y0409500D03*
X0826500Y0307500D03*
X0826500Y0205500D03*
X0826500Y0103500D03*
X0736500Y0033500D03*
X0506500Y0033500D03*
X0276500Y0033500D03*
D12*
X0291500Y0033500D03*
X0301500Y0033500D03*
X0311500Y0033500D03*
X0321500Y0033500D03*
X0331500Y0033500D03*
X0341500Y0033500D03*
X0351500Y0033500D03*
X0406500Y0033500D03*
X0416500Y0033500D03*
X0426500Y0033500D03*
X0436500Y0033500D03*
X0446500Y0033500D03*
X0456500Y0033500D03*
X0466500Y0033500D03*
X0521500Y0033500D03*
X0531500Y0033500D03*
X0541500Y0033500D03*
X0551500Y0033500D03*
X0561500Y0033500D03*
X0571500Y0033500D03*
X0581500Y0033500D03*
X0636500Y0033500D03*
X0646500Y0033500D03*
X0656500Y0033500D03*
X0666500Y0033500D03*
X0676500Y0033500D03*
X0686500Y0033500D03*
X0696500Y0033500D03*
X0751500Y0033500D03*
X0761500Y0033500D03*
X0771500Y0033500D03*
X0781500Y0033500D03*
X0791500Y0033500D03*
X0801500Y0033500D03*
X0811500Y0033500D03*
X0811500Y0135500D03*
X0801500Y0135500D03*
X0791500Y0135500D03*
X0781500Y0135500D03*
X0771500Y0135500D03*
X0761500Y0135500D03*
X0751500Y0135500D03*
X0696500Y0135500D03*
X0686500Y0135500D03*
X0676500Y0135500D03*
X0666500Y0135500D03*
X0656500Y0135500D03*
X0646500Y0135500D03*
X0636500Y0135500D03*
X0581500Y0135500D03*
X0571500Y0135500D03*
X0561500Y0135500D03*
X0551500Y0135500D03*
X0541500Y0135500D03*
X0531500Y0135500D03*
X0521500Y0135500D03*
X0466500Y0135500D03*
X0456500Y0135500D03*
X0446500Y0135500D03*
X0436500Y0135500D03*
X0426500Y0135500D03*
X0416500Y0135500D03*
X0406500Y0135500D03*
X0351500Y0135500D03*
X0341500Y0135500D03*
X0331500Y0135500D03*
X0321500Y0135500D03*
X0311500Y0135500D03*
X0301500Y0135500D03*
X0291500Y0135500D03*
X0236500Y0135500D03*
X0226500Y0135500D03*
X0216500Y0135500D03*
X0206500Y0135500D03*
X0196500Y0135500D03*
X0186500Y0135500D03*
X0176500Y0135500D03*
X0121500Y0135500D03*
X0111500Y0135500D03*
X0101500Y0135500D03*
X0091500Y0135500D03*
X0081500Y0135500D03*
X0071500Y0135500D03*
X0061500Y0135500D03*
X0061500Y0033500D03*
X0071500Y0033500D03*
X0081500Y0033500D03*
X0091500Y0033500D03*
X0101500Y0033500D03*
X0111500Y0033500D03*
X0121500Y0033500D03*
X0176500Y0033500D03*
X0186500Y0033500D03*
X0196500Y0033500D03*
X0206500Y0033500D03*
X0216500Y0033500D03*
X0226500Y0033500D03*
X0236500Y0033500D03*
X0236500Y0237500D03*
X0226500Y0237500D03*
X0216500Y0237500D03*
X0206500Y0237500D03*
X0196500Y0237500D03*
X0186500Y0237500D03*
X0176500Y0237500D03*
X0121500Y0237500D03*
X0111500Y0237500D03*
X0101500Y0237500D03*
X0091500Y0237500D03*
X0081500Y0237500D03*
X0071500Y0237500D03*
X0061500Y0237500D03*
X0061500Y0339500D03*
X0071500Y0339500D03*
X0081500Y0339500D03*
X0091500Y0339500D03*
X0101500Y0339500D03*
X0111500Y0339500D03*
X0121500Y0339500D03*
X0176500Y0339500D03*
X0186500Y0339500D03*
X0196500Y0339500D03*
X0206500Y0339500D03*
X0216500Y0339500D03*
X0226500Y0339500D03*
X0236500Y0339500D03*
X0291500Y0339500D03*
X0301500Y0339500D03*
X0311500Y0339500D03*
X0321500Y0339500D03*
X0331500Y0339500D03*
X0341500Y0339500D03*
X0351500Y0339500D03*
X0406500Y0339500D03*
X0416500Y0339500D03*
X0426500Y0339500D03*
X0436500Y0339500D03*
X0446500Y0339500D03*
X0456500Y0339500D03*
X0466500Y0339500D03*
X0521500Y0339500D03*
X0531500Y0339500D03*
X0541500Y0339500D03*
X0551500Y0339500D03*
X0561500Y0339500D03*
X0571500Y0339500D03*
X0581500Y0339500D03*
X0636500Y0339500D03*
X0646500Y0339500D03*
X0656500Y0339500D03*
X0666500Y0339500D03*
X0676500Y0339500D03*
X0686500Y0339500D03*
X0696500Y0339500D03*
X0751500Y0339500D03*
X0761500Y0339500D03*
X0771500Y0339500D03*
X0781500Y0339500D03*
X0791500Y0339500D03*
X0801500Y0339500D03*
X0811500Y0339500D03*
X0811500Y0237500D03*
X0801500Y0237500D03*
X0791500Y0237500D03*
X0781500Y0237500D03*
X0771500Y0237500D03*
X0761500Y0237500D03*
X0751500Y0237500D03*
X0696500Y0237500D03*
X0686500Y0237500D03*
X0676500Y0237500D03*
X0666500Y0237500D03*
X0656500Y0237500D03*
X0646500Y0237500D03*
X0636500Y0237500D03*
X0581500Y0237500D03*
X0571500Y0237500D03*
X0561500Y0237500D03*
X0551500Y0237500D03*
X0541500Y0237500D03*
X0531500Y0237500D03*
X0521500Y0237500D03*
X0466500Y0237500D03*
X0456500Y0237500D03*
X0446500Y0237500D03*
X0436500Y0237500D03*
X0426500Y0237500D03*
X0416500Y0237500D03*
X0406500Y0237500D03*
X0351500Y0237500D03*
X0341500Y0237500D03*
X0331500Y0237500D03*
X0321500Y0237500D03*
X0311500Y0237500D03*
X0301500Y0237500D03*
X0291500Y0237500D03*
X0291500Y0441500D03*
X0301500Y0441500D03*
X0311500Y0441500D03*
X0321500Y0441500D03*
X0331500Y0441500D03*
X0341500Y0441500D03*
X0351500Y0441500D03*
X0406500Y0441500D03*
X0416500Y0441500D03*
X0426500Y0441500D03*
X0436500Y0441500D03*
X0446500Y0441500D03*
X0456500Y0441500D03*
X0466500Y0441500D03*
X0521500Y0441500D03*
X0531500Y0441500D03*
X0541500Y0441500D03*
X0551500Y0441500D03*
X0561500Y0441500D03*
X0571500Y0441500D03*
X0581500Y0441500D03*
X0636500Y0441500D03*
X0646500Y0441500D03*
X0656500Y0441500D03*
X0666500Y0441500D03*
X0676500Y0441500D03*
X0686500Y0441500D03*
X0696500Y0441500D03*
X0751500Y0441500D03*
X0761500Y0441500D03*
X0771500Y0441500D03*
X0781500Y0441500D03*
X0791500Y0441500D03*
X0801500Y0441500D03*
X0811500Y0441500D03*
X0811500Y0543500D03*
X0801500Y0543500D03*
X0791500Y0543500D03*
X0781500Y0543500D03*
X0771500Y0543500D03*
X0761500Y0543500D03*
X0751500Y0543500D03*
X0696500Y0543500D03*
X0686500Y0543500D03*
X0676500Y0543500D03*
X0666500Y0543500D03*
X0656500Y0543500D03*
X0646500Y0543500D03*
X0636500Y0543500D03*
X0581500Y0543500D03*
X0571500Y0543500D03*
X0561500Y0543500D03*
X0551500Y0543500D03*
X0541500Y0543500D03*
X0531500Y0543500D03*
X0521500Y0543500D03*
X0466500Y0543500D03*
X0456500Y0543500D03*
X0446500Y0543500D03*
X0436500Y0543500D03*
X0426500Y0543500D03*
X0416500Y0543500D03*
X0406500Y0543500D03*
X0351500Y0543500D03*
X0341500Y0543500D03*
X0331500Y0543500D03*
X0321500Y0543500D03*
X0311500Y0543500D03*
X0301500Y0543500D03*
X0291500Y0543500D03*
X0236500Y0543500D03*
X0226500Y0543500D03*
X0216500Y0543500D03*
X0206500Y0543500D03*
X0196500Y0543500D03*
X0186500Y0543500D03*
X0176500Y0543500D03*
X0121500Y0543500D03*
X0111500Y0543500D03*
X0101500Y0543500D03*
X0091500Y0543500D03*
X0081500Y0543500D03*
X0071500Y0543500D03*
X0061500Y0543500D03*
X0061500Y0441500D03*
X0071500Y0441500D03*
X0081500Y0441500D03*
X0091500Y0441500D03*
X0101500Y0441500D03*
X0111500Y0441500D03*
X0121500Y0441500D03*
X0176500Y0441500D03*
X0186500Y0441500D03*
X0196500Y0441500D03*
X0206500Y0441500D03*
X0216500Y0441500D03*
X0226500Y0441500D03*
X0236500Y0441500D03*
X0236500Y0645500D03*
X0226500Y0645500D03*
X0216500Y0645500D03*
X0206500Y0645500D03*
X0196500Y0645500D03*
X0186500Y0645500D03*
X0176500Y0645500D03*
X0121500Y0645500D03*
X0111500Y0645500D03*
X0101500Y0645500D03*
X0091500Y0645500D03*
X0081500Y0645500D03*
X0071500Y0645500D03*
X0061500Y0645500D03*
X0061500Y0747500D03*
X0071500Y0747500D03*
X0081500Y0747500D03*
X0091500Y0747500D03*
X0101500Y0747500D03*
X0111500Y0747500D03*
X0121500Y0747500D03*
X0176500Y0747500D03*
X0186500Y0747500D03*
X0196500Y0747500D03*
X0206500Y0747500D03*
X0216500Y0747500D03*
X0226500Y0747500D03*
X0236500Y0747500D03*
X0291500Y0747500D03*
X0301500Y0747500D03*
X0311500Y0747500D03*
X0321500Y0747500D03*
X0331500Y0747500D03*
X0341500Y0747500D03*
X0351500Y0747500D03*
X0406500Y0747500D03*
X0416500Y0747500D03*
X0426500Y0747500D03*
X0436500Y0747500D03*
X0446500Y0747500D03*
X0456500Y0747500D03*
X0466500Y0747500D03*
X0521500Y0747500D03*
X0531500Y0747500D03*
X0541500Y0747500D03*
X0551500Y0747500D03*
X0561500Y0747500D03*
X0571500Y0747500D03*
X0581500Y0747500D03*
X0636500Y0747500D03*
X0646500Y0747500D03*
X0656500Y0747500D03*
X0666500Y0747500D03*
X0676500Y0747500D03*
X0686500Y0747500D03*
X0696500Y0747500D03*
X0751500Y0747500D03*
X0761500Y0747500D03*
X0771500Y0747500D03*
X0781500Y0747500D03*
X0791500Y0747500D03*
X0801500Y0747500D03*
X0811500Y0747500D03*
X0811500Y0645500D03*
X0801500Y0645500D03*
X0791500Y0645500D03*
X0781500Y0645500D03*
X0771500Y0645500D03*
X0761500Y0645500D03*
X0751500Y0645500D03*
X0696500Y0645500D03*
X0686500Y0645500D03*
X0676500Y0645500D03*
X0666500Y0645500D03*
X0656500Y0645500D03*
X0646500Y0645500D03*
X0636500Y0645500D03*
X0581500Y0645500D03*
X0571500Y0645500D03*
X0561500Y0645500D03*
X0551500Y0645500D03*
X0541500Y0645500D03*
X0531500Y0645500D03*
X0521500Y0645500D03*
X0466500Y0645500D03*
X0456500Y0645500D03*
X0446500Y0645500D03*
X0436500Y0645500D03*
X0426500Y0645500D03*
X0416500Y0645500D03*
X0406500Y0645500D03*
X0351500Y0645500D03*
X0341500Y0645500D03*
X0331500Y0645500D03*
X0321500Y0645500D03*
X0311500Y0645500D03*
X0301500Y0645500D03*
X0291500Y0645500D03*
X0291500Y0849500D03*
X0301500Y0849500D03*
X0311500Y0849500D03*
X0321500Y0849500D03*
X0331500Y0849500D03*
X0341500Y0849500D03*
X0351500Y0849500D03*
X0406500Y0849500D03*
X0416500Y0849500D03*
X0426500Y0849500D03*
X0436500Y0849500D03*
X0446500Y0849500D03*
X0456500Y0849500D03*
X0466500Y0849500D03*
X0521500Y0849500D03*
X0531500Y0849500D03*
X0541500Y0849500D03*
X0551500Y0849500D03*
X0561500Y0849500D03*
X0571500Y0849500D03*
X0581500Y0849500D03*
X0636500Y0849500D03*
X0646500Y0849500D03*
X0656500Y0849500D03*
X0666500Y0849500D03*
X0676500Y0849500D03*
X0686500Y0849500D03*
X0696500Y0849500D03*
X0751500Y0849500D03*
X0761500Y0849500D03*
X0771500Y0849500D03*
X0781500Y0849500D03*
X0791500Y0849500D03*
X0801500Y0849500D03*
X0811500Y0849500D03*
X0811500Y0951500D03*
X0801500Y0951500D03*
X0791500Y0951500D03*
X0781500Y0951500D03*
X0771500Y0951500D03*
X0761500Y0951500D03*
X0751500Y0951500D03*
X0696500Y0951500D03*
X0686500Y0951500D03*
X0676500Y0951500D03*
X0666500Y0951500D03*
X0656500Y0951500D03*
X0646500Y0951500D03*
X0636500Y0951500D03*
X0581500Y0951500D03*
X0571500Y0951500D03*
X0561500Y0951500D03*
X0551500Y0951500D03*
X0541500Y0951500D03*
X0531500Y0951500D03*
X0521500Y0951500D03*
X0466500Y0951500D03*
X0456500Y0951500D03*
X0446500Y0951500D03*
X0436500Y0951500D03*
X0426500Y0951500D03*
X0416500Y0951500D03*
X0406500Y0951500D03*
X0351500Y0951500D03*
X0341500Y0951500D03*
X0331500Y0951500D03*
X0321500Y0951500D03*
X0311500Y0951500D03*
X0301500Y0951500D03*
X0291500Y0951500D03*
X0236500Y0951500D03*
X0226500Y0951500D03*
X0216500Y0951500D03*
X0206500Y0951500D03*
X0196500Y0951500D03*
X0186500Y0951500D03*
X0176500Y0951500D03*
X0121500Y0951500D03*
X0111500Y0951500D03*
X0101500Y0951500D03*
X0091500Y0951500D03*
X0081500Y0951500D03*
X0071500Y0951500D03*
X0061500Y0951500D03*
X0061500Y0849500D03*
X0071500Y0849500D03*
X0081500Y0849500D03*
X0091500Y0849500D03*
X0101500Y0849500D03*
X0111500Y0849500D03*
X0121500Y0849500D03*
X0176500Y0849500D03*
X0186500Y0849500D03*
X0196500Y0849500D03*
X0206500Y0849500D03*
X0216500Y0849500D03*
X0226500Y0849500D03*
X0236500Y0849500D03*
D13*
X0081500Y1067750D03*
X0791500Y1067750D03*
D14*
X0077935Y0020250D02*
X0077937Y0020369D01*
X0077943Y0020488D01*
X0077953Y0020607D01*
X0077967Y0020725D01*
X0077985Y0020843D01*
X0078006Y0020960D01*
X0078032Y0021076D01*
X0078062Y0021192D01*
X0078095Y0021306D01*
X0078132Y0021419D01*
X0078173Y0021531D01*
X0078218Y0021642D01*
X0078266Y0021751D01*
X0078318Y0021858D01*
X0078374Y0021963D01*
X0078433Y0022067D01*
X0078495Y0022168D01*
X0078561Y0022268D01*
X0078630Y0022365D01*
X0078702Y0022459D01*
X0078778Y0022552D01*
X0078856Y0022641D01*
X0078937Y0022728D01*
X0079022Y0022813D01*
X0079109Y0022894D01*
X0079198Y0022972D01*
X0079291Y0023048D01*
X0079385Y0023120D01*
X0079482Y0023189D01*
X0079582Y0023255D01*
X0079683Y0023317D01*
X0079787Y0023376D01*
X0079892Y0023432D01*
X0079999Y0023484D01*
X0080108Y0023532D01*
X0080219Y0023577D01*
X0080331Y0023618D01*
X0080444Y0023655D01*
X0080558Y0023688D01*
X0080674Y0023718D01*
X0080790Y0023744D01*
X0080907Y0023765D01*
X0081025Y0023783D01*
X0081143Y0023797D01*
X0081262Y0023807D01*
X0081381Y0023813D01*
X0081500Y0023815D01*
X0081619Y0023813D01*
X0081738Y0023807D01*
X0081857Y0023797D01*
X0081975Y0023783D01*
X0082093Y0023765D01*
X0082210Y0023744D01*
X0082326Y0023718D01*
X0082442Y0023688D01*
X0082556Y0023655D01*
X0082669Y0023618D01*
X0082781Y0023577D01*
X0082892Y0023532D01*
X0083001Y0023484D01*
X0083108Y0023432D01*
X0083213Y0023376D01*
X0083317Y0023317D01*
X0083418Y0023255D01*
X0083518Y0023189D01*
X0083615Y0023120D01*
X0083709Y0023048D01*
X0083802Y0022972D01*
X0083891Y0022894D01*
X0083978Y0022813D01*
X0084063Y0022728D01*
X0084144Y0022641D01*
X0084222Y0022552D01*
X0084298Y0022459D01*
X0084370Y0022365D01*
X0084439Y0022268D01*
X0084505Y0022168D01*
X0084567Y0022067D01*
X0084626Y0021963D01*
X0084682Y0021858D01*
X0084734Y0021751D01*
X0084782Y0021642D01*
X0084827Y0021531D01*
X0084868Y0021419D01*
X0084905Y0021306D01*
X0084938Y0021192D01*
X0084968Y0021076D01*
X0084994Y0020960D01*
X0085015Y0020843D01*
X0085033Y0020725D01*
X0085047Y0020607D01*
X0085057Y0020488D01*
X0085063Y0020369D01*
X0085065Y0020250D01*
X0085063Y0020131D01*
X0085057Y0020012D01*
X0085047Y0019893D01*
X0085033Y0019775D01*
X0085015Y0019657D01*
X0084994Y0019540D01*
X0084968Y0019424D01*
X0084938Y0019308D01*
X0084905Y0019194D01*
X0084868Y0019081D01*
X0084827Y0018969D01*
X0084782Y0018858D01*
X0084734Y0018749D01*
X0084682Y0018642D01*
X0084626Y0018537D01*
X0084567Y0018433D01*
X0084505Y0018332D01*
X0084439Y0018232D01*
X0084370Y0018135D01*
X0084298Y0018041D01*
X0084222Y0017948D01*
X0084144Y0017859D01*
X0084063Y0017772D01*
X0083978Y0017687D01*
X0083891Y0017606D01*
X0083802Y0017528D01*
X0083709Y0017452D01*
X0083615Y0017380D01*
X0083518Y0017311D01*
X0083418Y0017245D01*
X0083317Y0017183D01*
X0083213Y0017124D01*
X0083108Y0017068D01*
X0083001Y0017016D01*
X0082892Y0016968D01*
X0082781Y0016923D01*
X0082669Y0016882D01*
X0082556Y0016845D01*
X0082442Y0016812D01*
X0082326Y0016782D01*
X0082210Y0016756D01*
X0082093Y0016735D01*
X0081975Y0016717D01*
X0081857Y0016703D01*
X0081738Y0016693D01*
X0081619Y0016687D01*
X0081500Y0016685D01*
X0081381Y0016687D01*
X0081262Y0016693D01*
X0081143Y0016703D01*
X0081025Y0016717D01*
X0080907Y0016735D01*
X0080790Y0016756D01*
X0080674Y0016782D01*
X0080558Y0016812D01*
X0080444Y0016845D01*
X0080331Y0016882D01*
X0080219Y0016923D01*
X0080108Y0016968D01*
X0079999Y0017016D01*
X0079892Y0017068D01*
X0079787Y0017124D01*
X0079683Y0017183D01*
X0079582Y0017245D01*
X0079482Y0017311D01*
X0079385Y0017380D01*
X0079291Y0017452D01*
X0079198Y0017528D01*
X0079109Y0017606D01*
X0079022Y0017687D01*
X0078937Y0017772D01*
X0078856Y0017859D01*
X0078778Y0017948D01*
X0078702Y0018041D01*
X0078630Y0018135D01*
X0078561Y0018232D01*
X0078495Y0018332D01*
X0078433Y0018433D01*
X0078374Y0018537D01*
X0078318Y0018642D01*
X0078266Y0018749D01*
X0078218Y0018858D01*
X0078173Y0018969D01*
X0078132Y0019081D01*
X0078095Y0019194D01*
X0078062Y0019308D01*
X0078032Y0019424D01*
X0078006Y0019540D01*
X0077985Y0019657D01*
X0077967Y0019775D01*
X0077953Y0019893D01*
X0077943Y0020012D01*
X0077937Y0020131D01*
X0077935Y0020250D01*
D15*
X0081500Y0020250D03*
M02*
